<?xml version="1.0" standalone="no"?>
<!DOCTYPE svg PUBLIC "-//W3C//DTD SVG 20010904//EN"
 "http://www.w3.org/TR/2001/REC-SVG-20010904/DTD/svg10.dtd">
<svg version="1.0" xmlns="http://www.w3.org/2000/svg"
 width="900.000000pt" height="900.000000pt" viewBox="0 0 900.000000 900.000000"
 preserveAspectRatio="xMidYMid meet">

<g transform="translate(0.000000,900.000000) scale(0.100000,-0.100000)"
fill="#000000" stroke="none">
<path d="M4455 8675 c-457 -85 -782 -528 -726 -991 32 -262 131 -458 281 -554
105 -67 234 -103 457 -126 250 -26 409 0 439 72 19 45 19 159 0 273 -27 166
-31 265 -12 315 45 117 236 204 520 237 124 15 120 7 80 145 -90 313 -356 559
-678 625 -106 22 -257 24 -361 4z"/>
<path d="M5285 7806 c-184 -39 -285 -89 -321 -158 -19 -36 -15 -101 16 -303
20 -135 19 -223 -6 -297 -15 -46 -21 -52 -76 -78 -33 -16 -92 -34 -131 -41
-125 -21 -425 4 -576 47 -29 8 -55 14 -57 12 -6 -7 81 -94 137 -136 77 -58
212 -119 306 -138 107 -23 291 -15 388 16 270 86 469 297 536 570 37 148 15
381 -47 503 -17 33 -25 33 -169 3z"/>
<path d="M3901 6670 c-234 -62 -419 -218 -538 -455 -94 -185 -239 -722 -272
-1005 -34 -285 -34 -553 0 -935 30 -338 157 -566 374 -670 92 -44 145 -56 500
-110 165 -26 397 -61 515 -80 118 -18 295 -46 392 -61 l177 -28 105 -265 c58
-146 162 -410 231 -586 173 -439 190 -478 247 -540 96 -105 258 -161 390 -135
213 41 360 215 360 425 0 97 -1 99 -175 540 -74 187 -155 392 -180 455 -298
757 -294 749 -377 824 -77 69 -145 93 -360 125 -107 17 -265 41 -350 55 -85
13 -247 39 -360 56 -113 17 -216 33 -229 36 l-24 5 7 181 c3 100 18 269 31
376 14 107 25 202 25 211 -1 9 -24 34 -52 56 -82 64 -257 243 -348 356 -99
123 -201 277 -268 404 -47 90 -47 90 -47 190 0 90 3 105 28 153 57 109 139
171 253 191 161 29 302 -47 388 -210 44 -84 130 -215 180 -274 l34 -40 7 88
c28 336 -130 620 -378 677 -69 16 -205 11 -286 -10z"/>
<path d="M3970 6369 c-88 -16 -152 -63 -196 -141 -25 -46 -29 -63 -29 -133 0
-74 4 -86 42 -160 97 -189 274 -423 450 -597 190 -189 369 -317 598 -428 301
-146 593 -212 940 -214 151 0 175 2 215 20 108 49 161 127 168 243 3 60 0 85
-16 121 -26 61 -65 105 -120 137 -44 26 -54 28 -237 34 -220 8 -308 19 -453
60 -425 120 -810 442 -1051 881 -23 42 -59 92 -80 111 -60 54 -154 81 -231 66z"/>
<path d="M340 6084 c-45 -20 -68 -41 -91 -86 -18 -36 -19 -78 -19 -1168 0
-938 2 -1136 14 -1163 16 -39 61 -82 99 -96 19 -8 389 -11 1175 -11 1098 0
1149 1 1182 19 19 10 48 35 65 55 l30 38 3 1140 c2 1107 2 1141 -17 1183 -13
29 -34 53 -62 72 l-43 28 -1150 2 c-1008 2 -1155 0 -1186 -13z m1345 -334 c10
-11 15 -28 12 -42 -2 -13 -44 -129 -92 -258 -47 -129 -93 -252 -100 -272 -8
-21 -12 -38 -9 -38 3 0 113 27 246 60 132 33 248 58 257 55 9 -2 22 -14 29
-25 12 -19 1 -47 -97 -258 -263 -569 -554 -1188 -563 -1199 -22 -27 -98 -6
-98 27 0 5 37 158 81 342 145 593 157 643 154 646 -2 2 -114 -24 -250 -57
-135 -34 -253 -61 -260 -61 -8 0 -22 11 -30 24 -17 26 -25 -11 144 679 45 180
81 334 81 342 0 8 9 24 20 35 19 19 33 20 238 20 205 0 220 -1 237 -20z"/>
<path d="M7034 5245 c-74 -16 -184 -70 -242 -120 -52 -45 -119 -141 -144 -207
-135 -355 139 -738 514 -719 40 2 101 62 128 124 47 108 61 184 67 357 6 185
-9 309 -51 412 -62 153 -119 185 -272 153z"/>
<path d="M6226 4898 c-16 -99 -108 -207 -214 -250 -53 -21 -70 -23 -257 -22
-110 1 -226 6 -258 11 -32 6 -60 7 -62 3 -8 -12 15 -77 36 -104 28 -35 90 -66
133 -66 29 0 225 67 358 123 33 14 37 14 43 -1 6 -15 87 -251 270 -782 140
-407 419 -1223 462 -1350 25 -74 47 -137 49 -139 3 -3 23 13 47 35 161 153
348 257 561 311 148 37 371 43 515 13 57 -11 131 -30 165 -42 226 -77 436
-229 584 -426 52 -69 57 -73 86 -66 114 24 79 144 -111 382 -236 295 -584 463
-1007 486 -54 3 -101 8 -104 11 -3 2 -28 66 -57 142 -62 165 -94 229 -172 348
-156 237 -393 441 -661 571 l-101 49 -20 55 c-10 30 -69 199 -129 375 -142
413 -143 415 -156 333z"/>
<path d="M1046 3360 c-15 -5 -37 -17 -48 -27 -43 -37 -48 -71 -48 -295 0 -193
2 -215 20 -254 21 -43 67 -74 109 -74 12 0 21 -4 21 -9 0 -5 -24 -72 -54 -149
-116 -298 -231 -670 -276 -892 -23 -117 -50 -314 -50 -372 l0 -38 301 0 301 0
-6 28 c-4 15 -10 87 -13 161 -10 221 25 387 122 586 175 356 493 591 895 661
137 23 350 15 486 -19 537 -136 914 -611 918 -1157 1 -69 -3 -155 -7 -192 l-9
-68 1392 0 1391 0 -8 53 c-4 28 -8 123 -8 210 l0 157 -1111 0 -1111 0 -41 93
c-118 269 -207 611 -229 877 -6 74 -5 76 21 88 14 6 35 26 46 44 18 30 20 51
20 266 0 262 -2 273 -70 311 l-38 21 -1443 -1 c-794 0 -1457 -5 -1473 -9z"/>
<path d="M2400 2519 c-330 -38 -618 -226 -786 -511 -163 -279 -183 -629 -54
-930 103 -241 308 -444 552 -548 107 -46 218 -70 349 -77 491 -25 927 294
1056 772 24 89 27 118 27 260 0 191 -19 286 -88 431 -60 126 -106 194 -201
292 -218 229 -544 347 -855 311z m215 -635 c119 -30 216 -110 267 -220 36 -76
46 -145 36 -233 -20 -172 -160 -317 -338 -349 -283 -51 -537 220 -466 497 59
232 276 364 501 305z"/>
<path d="M7570 2518 c-263 -28 -527 -171 -692 -377 -106 -133 -188 -310 -219
-473 -17 -92 -14 -289 6 -383 89 -425 422 -747 847 -821 109 -19 283 -15 395
10 186 40 361 135 499 271 221 218 324 477 312 787 -11 271 -119 510 -316 700
-227 218 -518 319 -832 286z m215 -633 c301 -78 410 -449 199 -676 -83 -87
-181 -130 -300 -131 -252 -1 -444 221 -406 468 38 245 270 400 507 339z"/>
</g>
</svg>
