<?xml version="1.0" standalone="no"?>
<!DOCTYPE svg PUBLIC "-//W3C//DTD SVG 20010904//EN"
 "http://www.w3.org/TR/2001/REC-SVG-20010904/DTD/svg10.dtd">
<svg version="1.0" xmlns="http://www.w3.org/2000/svg"
 width="225.000000pt" height="225.000000pt" viewBox="0 0 225.000000 225.000000"
 preserveAspectRatio="xMidYMid meet">

<g transform="translate(0.000000,225.000000) scale(0.100000,-0.100000)"
fill="#000000" stroke="none">
<path d="M1040 1993 c-351 -37 -665 -274 -762 -575 -12 -38 -27 -68 -32 -68
-23 0 -122 -52 -149 -78 -69 -65 -91 -177 -54 -274 32 -83 128 -146 236 -155
80 -6 85 1 61 72 -33 95 -45 221 -32 320 67 504 594 814 1099 645 205 -68 398
-242 482 -435 36 -82 61 -202 61 -298 0 -299 -176 -566 -464 -703 -72 -34 -85
-37 -171 -38 -110 -1 -135 -15 -135 -76 0 -45 21 -65 77 -75 58 -9 107 9 131
48 14 25 37 39 98 64 189 77 367 240 450 412 24 49 34 61 59 65 59 12 131 54
172 100 51 58 70 127 53 200 -21 96 -59 139 -163 186 -41 18 -67 36 -67 46 0
25 -56 149 -96 211 -76 119 -217 245 -349 311 -149 74 -348 112 -505 95z"/>
<path d="M944 1771 c-227 -61 -401 -223 -471 -436 -22 -66 -26 -99 -26 -190 0
-94 3 -121 27 -190 65 -190 186 -314 391 -403 91 -39 157 -52 263 -52 121 0
211 22 320 75 161 80 277 216 338 395 29 86 27 271 -5 369 -61 186 -214 338
-415 414 -73 27 -95 31 -216 34 -110 2 -148 -1 -206 -16z m-138 -792 c196
-135 450 -130 663 12 l34 23 -7 -43 c-25 -156 -145 -259 -322 -276 -181 -18
-334 58 -393 197 -20 46 -36 118 -26 118 4 0 26 -14 51 -31z"/>
</g>
</svg>
