<?xml version="1.0" standalone="no"?>
<!DOCTYPE svg PUBLIC "-//W3C//DTD SVG 20010904//EN"
 "http://www.w3.org/TR/2001/REC-SVG-20010904/DTD/svg10.dtd">
<svg version="1.0" xmlns="http://www.w3.org/2000/svg"
 width="600.000000pt" height="778.000000pt" viewBox="0 0 600.000000 778.000000"
 preserveAspectRatio="xMidYMid meet">

<g transform="translate(0.000000,778.000000) scale(0.100000,-0.100000)"
fill="#000000" stroke="none">
<path d="M4487 6830 c-31 -11 -79 -34 -106 -50 -26 -17 -53 -30 -58 -30 -5 0
-19 -10 -31 -23 -17 -17 -22 -36 -22 -73 0 -38 -4 -52 -20 -62 -11 -7 -20 -23
-20 -36 0 -13 -9 -34 -19 -47 -30 -37 -55 -16 -59 49 -5 82 -28 88 -116 28
-34 -23 -86 -128 -86 -173 0 -36 45 -95 91 -119 41 -21 105 -18 150 8 31 17
41 31 52 67 12 43 15 46 57 54 46 8 90 44 90 73 0 25 42 117 64 142 12 13 72
48 134 78 62 30 115 61 119 70 3 9 -3 25 -15 37 -31 31 -128 34 -205 7z"/>
<path d="M2250 6661 c-5 -11 -10 -44 -10 -73 0 -35 -7 -67 -21 -92 l-21 -39
41 -37 c23 -21 41 -43 41 -48 0 -22 -44 -52 -77 -52 -29 0 -33 3 -33 25 0 37
-23 86 -53 114 -22 20 -33 23 -67 18 -54 -7 -58 -12 -33 -45 54 -73 67 -139
48 -239 -8 -44 -1 -93 14 -93 9 0 26 18 80 81 17 20 48 45 69 54 20 10 49 26
64 37 38 27 132 50 160 39 13 -4 29 -6 36 -4 7 3 18 -10 27 -29 14 -33 81 -95
92 -84 3 3 7 44 9 91 3 78 1 85 -16 85 -28 0 -34 17 -32 92 3 77 -5 84 -64 48
-33 -21 -51 -52 -45 -79 3 -18 -17 -31 -51 -31 -24 0 -28 4 -28 29 0 17 5 33
10 36 19 12 9 60 -20 99 -17 22 -30 45 -30 52 0 16 -50 64 -67 64 -7 0 -17 -9
-23 -19z"/>
<path d="M3722 6549 c-26 -10 -36 -33 -46 -104 -7 -45 -14 -56 -77 -115 -72
-67 -83 -94 -53 -124 32 -33 110 -10 122 37 8 33 64 72 88 63 7 -3 19 -18 27
-33 8 -15 47 -61 86 -101 39 -41 71 -78 71 -83 0 -16 -44 -10 -83 11 -20 11
-44 20 -52 20 -34 0 -70 -102 -47 -136 4 -6 28 -21 54 -32 26 -11 74 -38 105
-59 95 -63 238 -92 289 -58 26 17 26 20 21 86 l-6 69 57 -1 c55 -2 57 -1 94
42 21 24 38 47 38 50 0 16 101 59 139 59 33 0 47 6 75 35 20 19 40 35 45 35 5
0 7 9 4 20 -6 24 -25 27 -200 35 -117 6 -139 4 -200 -15 -77 -24 -178 -36
-218 -26 -42 11 -120 91 -145 148 -17 39 -20 61 -15 98 6 44 4 50 -17 63 -28
18 -125 28 -156 16z"/>
<path d="M2320 6205 c-7 -9 -29 -15 -53 -15 -36 0 -47 -6 -88 -49 -53 -56 -69
-103 -49 -150 10 -24 9 -35 -5 -62 -21 -39 -14 -112 13 -142 31 -35 92 -57
163 -57 72 0 79 -5 79 -60 0 -25 -6 -31 -47 -46 -63 -23 -83 -41 -83 -75 0
-21 -7 -32 -27 -43 -16 -8 -46 -33 -68 -56 -22 -23 -68 -62 -101 -86 -65 -46
-82 -70 -64 -88 7 -7 20 -6 43 3 17 7 48 19 69 27 20 7 58 27 84 44 57 36 101
41 84 11 -13 -26 -3 -51 21 -51 26 0 151 72 208 119 25 21 60 45 76 53 38 19
136 48 164 48 39 0 141 59 141 82 0 5 -20 17 -44 28 -24 10 -47 23 -51 29 -17
29 -71 44 -147 42 -89 -2 -98 6 -98 82 0 46 29 95 102 173 37 39 27 48 -57 48
-71 -1 -124 -26 -229 -109 -69 -56 -91 -63 -127 -45 -25 14 -26 68 -1 77 9 4
31 18 49 32 31 25 46 30 93 35 14 1 38 15 52 29 15 15 34 27 43 27 8 0 15 5
15 10 0 6 -38 10 -94 10 -52 0 -97 4 -101 10 -9 15 35 38 88 45 56 9 89 43 67
70 -17 20 -103 20 -120 0z"/>
<path d="M4675 6091 c-27 -15 -55 -37 -61 -49 -15 -30 -6 -70 18 -83 28 -15
68 4 68 31 0 13 7 20 20 20 25 0 40 29 40 74 0 44 -14 45 -85 7z"/>
<path d="M4528 5883 c-8 -10 -22 -30 -31 -45 -29 -46 -53 -53 -87 -24 -35 29
-69 41 -80 29 -5 -4 -16 -24 -24 -44 -13 -31 -13 -39 0 -63 20 -41 17 -61 -11
-74 -22 -10 -45 -47 -45 -72 0 -4 14 -13 31 -19 25 -8 37 -7 62 6 18 9 50 19
72 22 39 6 40 8 46 50 5 39 14 52 77 109 40 35 72 70 72 78 0 54 -51 83 -82
47z"/>
<path d="M2916 5841 c-57 -24 -80 -43 -96 -81 -8 -20 -9 -34 -1 -47 9 -18 14
-19 96 -7 47 7 147 13 221 12 148 -1 173 7 159 51 -11 35 -52 54 -148 68 -160
24 -178 24 -231 4z"/>
<path d="M3791 5846 c-8 -10 -5 -27 16 -72 14 -32 28 -80 31 -107 4 -45 2 -50
-28 -76 -27 -22 -33 -35 -32 -62 7 -264 11 -279 61 -279 49 -1 108 -36 146
-88 19 -28 42 -53 50 -56 40 -15 65 24 65 103 0 38 5 52 25 71 36 33 32 64 -9
88 -29 17 -36 28 -41 66 -4 25 -13 53 -20 62 -32 45 -79 -34 -73 -125 l3 -56
-40 3 c-22 2 -41 5 -43 7 -2 2 -8 22 -13 45 -10 46 -1 73 38 103 15 13 23 29
23 51 0 50 23 73 99 96 58 17 69 24 73 45 7 37 -13 68 -52 80 -39 13 -106 40
-132 55 -10 5 -24 7 -32 4 -7 -3 -22 3 -32 14 -17 18 -56 42 -67 42 -3 0 -10
-6 -16 -14z"/>
<path d="M3527 5780 c-21 -11 -56 -20 -81 -20 -49 0 -76 -24 -76 -67 0 -42
-33 -51 -170 -47 -69 2 -147 7 -175 10 -45 5 -54 2 -83 -23 -27 -23 -35 -38
-39 -75 -7 -60 7 -67 85 -44 31 9 89 17 127 17 39 0 102 0 142 0 68 1 77 -2
206 -65 135 -67 170 -76 210 -55 31 17 37 28 37 79 0 41 5 51 45 90 40 39 45
50 43 80 -4 43 -23 49 -84 25 -65 -25 -104 -65 -104 -109 l0 -36 -50 28 c-27
15 -50 32 -50 39 0 6 23 31 50 54 40 33 100 115 100 135 0 13 -101 1 -133 -16z"/>
<path d="M1005 5714 c-22 -20 -73 -60 -112 -90 -63 -47 -93 -79 -93 -98 0 -16
37 -36 69 -36 26 0 55 11 99 40 33 22 68 40 77 40 21 0 39 -43 31 -74 -5 -21
-12 -26 -39 -26 -39 -1 -51 -9 -111 -80 -61 -72 -60 -79 10 -66 l57 10 33 -37
c29 -31 34 -44 34 -86 0 -33 6 -56 20 -74 12 -15 20 -40 20 -65 0 -42 18 -66
42 -57 8 3 32 32 53 65 28 44 48 63 77 75 21 8 43 15 48 15 18 0 10 -68 -16
-141 -35 -97 -31 -190 11 -245 27 -35 27 -35 42 -14 8 11 25 31 38 44 13 13
29 43 35 67 16 64 26 80 92 150 62 66 97 127 98 167 0 20 -5 22 -45 22 -39 0
-49 -5 -82 -41 -44 -48 -71 -65 -84 -52 -5 5 -2 51 6 107 15 101 12 163 -10
193 -13 17 -14 17 -35 -2 -13 -11 -36 -48 -53 -83 -32 -66 -85 -122 -117 -122
-33 0 -24 36 25 98 38 48 45 64 45 102 0 43 4 48 69 111 71 67 97 114 68 125
-8 3 -33 -7 -55 -21 -60 -40 -110 -43 -149 -11 -17 14 -38 45 -48 68 -20 51
-29 58 -75 57 -26 0 -46 -9 -75 -35z"/>
<path d="M5112 5488 c-5 -7 -13 -34 -17 -61 -7 -42 -12 -50 -49 -72 -22 -13
-54 -27 -71 -31 -33 -7 -95 -60 -95 -81 0 -15 19 -17 39 -4 11 7 73 -9 89 -23
1 -2 -3 -17 -9 -35 -10 -27 -23 -38 -75 -62 -35 -15 -64 -33 -64 -40 0 -6 12
-25 26 -42 23 -28 26 -37 20 -81 -7 -58 -30 -85 -94 -110 l-44 -17 -31 35
c-38 40 -77 51 -139 37 -30 -7 -57 -7 -81 0 -35 9 -37 12 -37 50 0 22 5 71 11
109 14 92 2 119 -64 139 -38 12 -60 28 -99 73 -27 32 -58 58 -68 58 -20 0 -70
-89 -70 -125 0 -11 26 -59 57 -105 l56 -85 1 -80 c1 -73 3 -80 23 -85 12 -3
30 -17 41 -31 11 -14 39 -38 61 -53 35 -24 42 -36 52 -85 13 -60 51 -121 75
-121 8 0 23 6 34 12 40 25 41 -4 5 -80 -32 -65 -47 -142 -27 -142 4 0 27 24
51 54 34 43 80 76 106 76 4 0 18 -134 19 -180 1 -25 6 -45 11 -44 15 1 45 66
45 97 0 15 11 51 25 80 23 47 25 60 19 124 -9 106 -4 119 58 138 28 8 68 15
88 15 29 0 45 8 76 39 33 31 49 39 94 45 30 4 80 19 110 34 66 33 80 61 61
125 -25 84 -25 94 3 118 15 13 33 45 41 73 17 55 38 92 69 118 18 14 137 64
201 83 31 9 68 61 60 85 -9 27 -44 40 -110 40 -130 0 -235 -78 -284 -211 -63
-170 -78 -196 -133 -225 -38 -20 -45 -17 -21 9 28 30 40 56 64 134 12 38 33
92 47 121 31 65 24 87 -30 87 -45 1 -62 15 -85 71 -19 47 -25 51 -41 32z"/>
<path d="M1596 5380 c-27 -33 -33 -50 -16 -50 6 0 10 -16 10 -35 0 -57 25 -42
45 28 23 78 24 81 4 85 -9 2 -28 -11 -43 -28z"/>
<path d="M896 5267 c-48 -62 -28 -107 46 -107 49 0 73 20 64 55 -7 29 -57 85
-75 85 -5 0 -21 -15 -35 -33z"/>
<path d="M5542 5264 c-59 -29 -78 -44 -102 -82 -17 -26 -33 -58 -37 -72 -3
-14 -12 -34 -19 -45 -20 -29 -17 -72 8 -105 19 -26 20 -33 9 -69 -7 -26 -28
-54 -58 -80 l-46 -41 41 0 c37 0 47 7 139 96 54 52 114 103 133 114 52 27 75
58 93 127 23 83 22 91 -13 146 -36 58 -49 58 -148 11z"/>
<path d="M2960 5206 c-148 -21 -227 -43 -336 -95 -137 -66 -195 -104 -293
-197 -110 -103 -190 -212 -256 -348 -61 -126 -80 -190 -96 -331 -35 -311 68
-636 279 -883 126 -147 380 -288 609 -338 121 -26 335 -24 441 5 198 52 294
105 417 226 130 128 200 259 245 452 31 130 26 364 -10 448 -4 11 -16 43 -25
70 -39 113 -157 280 -248 354 -23 19 -87 55 -142 82 -122 58 -197 71 -345 60
-200 -16 -348 -79 -466 -198 -186 -190 -224 -435 -105 -689 43 -91 134 -192
211 -235 134 -74 345 -81 475 -16 100 50 185 152 222 265 27 85 24 236 -6 326
-32 93 -111 177 -187 199 -89 26 -167 -2 -199 -73 -24 -53 -14 -81 42 -127
131 -107 155 -136 168 -205 10 -51 -29 -134 -81 -174 -67 -52 -125 -68 -217
-60 -116 10 -188 49 -244 134 -72 110 -89 205 -58 321 37 139 116 235 249 300
107 52 169 65 276 58 107 -7 185 -34 273 -93 86 -59 124 -106 181 -224 61
-125 79 -215 73 -350 -8 -176 -59 -324 -153 -443 -55 -71 -115 -116 -224 -168
-101 -49 -200 -69 -334 -69 -237 0 -402 54 -561 183 -215 173 -318 349 -360
612 -42 266 60 557 264 754 236 227 619 310 1016 219 251 -57 518 -287 651
-559 42 -87 93 -249 101 -322 l6 -59 13 38 c21 62 27 158 14 251 -37 276 -166
503 -382 674 -56 44 -215 127 -315 165 -142 54 -421 82 -583 60z"/>
<path d="M1833 5185 c-39 -27 -65 -83 -73 -156 -9 -77 -23 -100 -82 -130 -44
-22 -61 -9 -29 25 22 23 51 96 51 128 0 39 -31 32 -72 -16 -22 -25 -44 -46
-50 -46 -5 0 -22 -9 -38 -20 -22 -16 -28 -29 -33 -75 -3 -31 -15 -75 -26 -98
-19 -40 -20 -45 -6 -91 8 -27 15 -86 15 -131 0 -98 22 -175 51 -175 10 0 19 7
19 15 0 26 37 123 58 152 22 31 62 157 62 194 0 16 10 30 28 41 80 48 132 127
132 203 0 34 11 52 64 108 41 43 45 62 17 77 -28 14 -63 12 -88 -5z"/>
<path d="M4143 5038 c-34 -39 -36 -48 -11 -68 32 -27 56 -25 64 5 6 25 -12 85
-25 85 -4 0 -17 -10 -28 -22z"/>
<path d="M5160 4615 c-35 -19 -91 -96 -138 -191 -26 -52 -53 -90 -76 -108 -40
-30 -47 -63 -18 -89 28 -25 140 -12 194 22 l42 27 78 -40 c55 -27 83 -48 94
-67 16 -33 18 -33 45 -19 12 7 19 21 19 41 0 65 -22 117 -81 189 -58 71 -59
74 -59 135 0 54 -4 66 -26 89 -30 29 -39 31 -74 11z"/>
<path d="M1435 4211 c-3 -11 -17 -26 -30 -35 -16 -10 -25 -26 -25 -42 0 -33
27 -84 44 -84 7 0 19 -7 26 -15 17 -20 60 -20 60 1 0 25 -53 194 -61 194 -4 0
-10 -9 -14 -19z"/>
<path d="M4945 4155 c-5 -2 -22 -6 -37 -9 -31 -7 -38 -35 -14 -55 8 -7 17 -23
20 -36 15 -58 79 -12 80 58 1 35 -2 42 -19 44 -11 1 -24 0 -30 -2z"/>
<path d="M5188 4153 c-19 -5 -25 -42 -9 -58 5 -6 11 -23 13 -40 2 -25 8 -30
34 -33 35 -3 59 18 50 45 -11 33 -70 90 -88 86z"/>
<path d="M5434 4005 c-7 -19 -14 -39 -14 -44 0 -12 84 -26 99 -16 19 11 12 45
-15 70 -36 34 -52 31 -70 -10z"/>
<path d="M1280 3975 c-24 -25 -24 -27 -7 -53 9 -15 28 -51 42 -79 13 -29 31
-53 39 -53 8 0 24 16 36 35 12 19 28 35 35 35 18 0 31 -60 15 -70 -19 -11 -4
-40 20 -40 11 0 20 -4 20 -10 0 -5 9 -10 20 -10 11 0 27 -11 36 -25 16 -24 54
-35 54 -15 0 6 -4 10 -8 10 -5 0 -19 14 -32 32 -19 26 -23 42 -21 90 2 46 -1
58 -13 58 -11 0 -18 13 -22 40 -4 22 -10 43 -15 46 -4 2 -36 9 -71 13 -35 5
-72 12 -83 16 -15 4 -28 -1 -45 -20z"/>
<path d="M4610 3790 c-28 -44 -34 -64 -41 -143 -10 -108 -21 -166 -51 -261
l-22 -69 27 -47 c15 -26 27 -60 27 -74 0 -26 39 -76 58 -76 21 0 33 32 39 109
8 108 19 116 81 61 26 -24 55 -52 65 -62 25 -25 31 -23 50 17 25 53 22 93 -8
107 -28 12 -47 60 -39 94 3 13 1 56 -6 96 -20 126 -40 143 -99 86 l-34 -33 7
35 c4 19 11 53 17 75 6 22 9 61 7 85 -2 37 -7 46 -24 48 -16 2 -29 -9 -54 -48z"/>
<path d="M1514 3630 c-70 -23 -114 -62 -98 -87 6 -9 19 -21 30 -27 10 -6 21
-12 23 -14 3 -1 -6 -17 -20 -35 -37 -49 -34 -122 6 -168 17 -19 37 -50 44 -67
12 -30 12 -34 -5 -48 -36 -28 -68 -35 -139 -29 -96 8 -125 -18 -125 -112 0
-56 -16 -124 -33 -138 -7 -5 -20 -22 -29 -37 -14 -21 -15 -32 -7 -57 6 -17 15
-31 20 -31 25 0 2 -40 -56 -101 -36 -37 -65 -74 -65 -84 0 -44 76 -131 120
-137 24 -3 25 -1 28 64 l3 67 94 96 c113 114 118 131 54 186 -38 33 -41 38
-35 71 10 57 25 71 63 58 41 -15 98 9 164 68 46 41 47 41 64 22 10 -11 23 -20
29 -20 6 -1 22 -10 35 -21 21 -17 23 -25 18 -71 -6 -48 15 -158 30 -158 10 0
73 42 73 48 0 4 16 18 35 31 24 16 42 21 60 17 29 -7 83 15 110 44 36 40 -12
85 -152 140 -139 55 -158 85 -139 222 10 79 5 98 -29 98 -29 0 -31 14 -9 59
19 39 13 85 -19 132 -28 42 -57 45 -143 19z"/>
<path d="M1120 3576 c-31 -16 -52 -37 -69 -67 -13 -24 -43 -74 -68 -110 -56
-83 -65 -133 -33 -183 12 -20 30 -36 40 -36 32 0 57 37 51 74 -3 14 21 36 40
36 18 0 39 -27 39 -49 0 -6 -16 -28 -35 -50 -39 -43 -43 -68 -17 -101 25 -31
66 -18 103 33 47 65 38 175 -23 259 -11 15 -7 23 24 55 63 67 76 119 36 147
-29 21 -35 20 -88 -8z"/>
<path d="M4942 3458 c-7 -7 -12 -30 -12 -52 0 -22 -6 -47 -14 -55 -7 -9 -30
-61 -51 -116 -20 -55 -50 -130 -66 -166 -34 -77 -59 -155 -59 -186 0 -23 0
-23 37 -5 31 15 43 31 85 121 27 58 72 138 99 179 80 117 84 131 60 212 -23
75 -49 98 -79 68z"/>
<path d="M5089 3278 c-12 -24 -45 -72 -74 -108 -70 -88 -115 -155 -115 -174 0
-21 18 -30 35 -16 12 10 17 7 26 -14 11 -24 4 -94 -15 -146 -3 -8 1 -24 9 -34
14 -19 15 -19 36 0 12 10 34 44 49 74 15 30 40 66 54 79 36 34 33 63 -9 95
-42 32 -43 48 -9 93 35 46 54 96 54 142 0 56 -15 59 -41 9z"/>
<path d="M865 3044 c-30 -14 -64 -41 -85 -68 -19 -25 -40 -45 -47 -46 -7 0
-31 -32 -53 -70 -30 -51 -59 -85 -106 -121 -35 -28 -64 -55 -64 -60 0 -6 12
-21 26 -34 45 -42 95 -35 187 26 43 28 85 61 93 74 9 14 17 51 18 87 3 62 30
142 70 202 10 15 16 29 14 31 -2 2 -26 -7 -53 -21z"/>
<path d="M5177 3043 c-8 -16 -17 -46 -20 -68 -6 -33 -45 -143 -97 -273 -8 -17
-6 -24 6 -29 8 -3 16 -4 18 -2 66 73 196 300 196 342 0 20 -43 57 -68 57 -13
0 -27 -10 -35 -27z"/>
<path d="M4230 2997 c-20 -12 -60 -41 -90 -65 -60 -49 -120 -81 -201 -110 -46
-16 -125 -62 -214 -125 -26 -19 -49 -101 -35 -127 6 -11 23 -20 42 -22 27 -2
34 -9 41 -35 8 -25 5 -38 -12 -66 -11 -19 -21 -44 -21 -57 0 -19 4 -21 23 -15
43 13 214 18 221 6 4 -6 10 -43 13 -81 l6 -70 -43 -41 c-23 -22 -67 -57 -99
-77 -81 -53 -89 -70 -46 -90 40 -19 51 -16 189 52 135 65 224 102 230 95 5 -5
-11 -110 -18 -116 -2 -2 -32 -8 -67 -13 -76 -11 -160 -42 -173 -63 -7 -11 -7
-26 0 -44 11 -31 31 -34 124 -19 l45 7 -25 -18 c-14 -10 -45 -36 -69 -59 -45
-41 -45 -42 -28 -68 25 -38 51 -33 142 25 44 28 105 58 135 66 80 20 85 29 59
89 -50 114 -43 199 23 270 31 33 39 49 34 66 -10 41 -45 88 -65 88 -11 0 -52
-16 -93 -35 l-73 -35 -3 54 c-2 31 2 74 8 97 l12 42 69 -6 c57 -5 69 -3 69 9
0 22 -42 60 -83 75 -20 7 -37 15 -36 19 0 3 20 19 44 35 139 95 293 240 333
313 27 48 20 52 -32 17 -20 -14 -41 -25 -47 -25 -5 0 -27 -9 -49 -20 -47 -24
-78 -26 -87 -4 -4 11 -17 15 -47 13 -67 -3 -66 -3 -59 46 3 25 2 45 -3 45 -5
0 -25 -11 -44 -23z"/>
<path d="M2065 2925 c-75 -46 -110 -62 -143 -68 -19 -4 -45 -16 -58 -26 -15
-12 -49 -22 -82 -26 -91 -10 -102 -13 -102 -36 0 -30 27 -77 49 -84 10 -3 38
-1 62 4 31 7 63 6 106 -2 58 -11 62 -13 77 -49 19 -50 58 -53 81 -8 8 16 33
39 54 49 67 35 99 118 67 179 -9 17 -16 40 -16 50 0 10 -11 24 -25 30 -31 15
-23 16 -70 -13z"/>
<path d="M5283 2905 c-34 -24 -56 -92 -57 -177 -2 -103 1 -102 74 7 44 66 50
106 25 155 -18 35 -15 34 -42 15z"/>
<path d="M2325 2851 c-38 -23 -54 -43 -95 -115 -23 -40 -46 -66 -76 -84 -49
-30 -58 -45 -44 -73 8 -14 21 -19 51 -19 55 0 88 20 124 74 27 41 75 76 103
76 23 0 22 -21 -3 -42 -14 -13 -40 -52 -58 -88 -27 -54 -37 -65 -63 -71 -49
-10 -56 -18 -51 -58 9 -63 25 -112 44 -133 30 -34 119 -97 148 -104 15 -4 48
-24 73 -45 94 -77 110 -89 117 -89 4 0 5 30 3 68 -3 54 -10 76 -36 116 -38 59
-41 104 -11 132 28 25 50 69 43 87 -3 8 -16 20 -29 27 -21 11 -27 11 -43 -3
-46 -42 -43 0 8 99 60 118 54 149 -42 224 -57 46 -112 53 -163 21z"/>
<path d="M998 2842 c-21 -8 -38 -19 -38 -23 0 -5 -8 -9 -17 -10 -10 0 -43 -32
-73 -70 -53 -67 -114 -129 -176 -176 l-29 -22 58 -26 c32 -14 67 -25 78 -25
35 0 84 26 95 51 11 26 43 87 97 190 41 77 51 86 94 91 21 2 30 7 25 14 -12
18 -75 22 -114 6z"/>
<path d="M2874 2724 c-23 -8 -56 -30 -73 -49 -19 -22 -41 -35 -56 -35 -34 0
-63 -42 -70 -105 -8 -64 -1 -114 21 -141 13 -16 16 -17 21 -4 4 8 27 37 53 65
26 27 57 67 69 87 22 37 52 55 71 43 6 -4 8 -15 5 -24 -3 -10 3 -29 13 -42 58
-73 59 -119 7 -156 -66 -45 -97 -79 -97 -107 0 -58 28 -54 110 16 66 56 110
78 157 78 59 0 110 22 154 66 19 19 46 37 60 40 76 16 111 51 111 107 0 31
-16 37 -95 37 -46 0 -77 7 -117 25 -61 29 -94 31 -145 10 -55 -23 -70 -19 -83
19 -13 42 -47 86 -63 85 -7 0 -31 -7 -53 -15z"/>
<path d="M3620 2498 c-14 -5 -49 -8 -78 -5 -59 4 -79 -11 -60 -47 6 -11 11
-32 12 -45 1 -20 8 -27 36 -33 46 -9 65 -3 78 27 6 14 16 25 21 25 18 0 41 31
41 55 0 28 -17 36 -50 23z"/>
<path d="M2036 2392 c-40 -14 -51 -23 -57 -45 -9 -34 -2 -56 26 -79 22 -19 28
-18 -91 -23 -42 -2 -84 -26 -111 -64 -7 -10 -49 -45 -93 -76 -88 -64 -98 -85
-50 -110 52 -27 99 -20 227 32 41 17 71 23 87 19 39 -10 83 -79 112 -175 49
-166 65 -186 149 -198 47 -6 95 14 95 41 0 7 -27 30 -61 51 -67 41 -83 66 -94
150 -4 28 -9 58 -11 67 -5 15 0 17 28 11 48 -9 57 -19 51 -58 -7 -42 18 -85
48 -85 30 0 106 47 130 82 17 23 20 39 17 79 -5 44 -29 89 -48 89 -4 0 -24
-11 -44 -25 -47 -32 -52 -31 -71 6 -23 44 -14 57 42 61 36 2 49 7 51 20 7 34
-88 98 -145 98 -25 0 -26 1 -43 68 -13 51 -41 82 -72 81 -13 0 -45 -8 -72 -17z"/>
<path d="M3267 2360 c-32 -28 -71 -53 -85 -56 -73 -16 -77 -19 -80 -60 -4 -50
23 -88 74 -104 64 -21 100 6 118 92 7 33 45 46 83 29 52 -24 85 16 58 69 -18
35 -71 80 -93 80 -9 -1 -43 -23 -75 -50z"/>
<path d="M3753 1978 c-17 -20 -21 -41 -26 -138 -5 -98 -14 -149 -43 -241 -3
-8 5 -25 18 -37 13 -12 38 -36 57 -53 27 -26 38 -30 65 -25 34 7 71 39 80 72
4 13 -4 35 -24 66 -30 45 -30 45 -27 177 l2 131 -38 35 c-21 19 -39 35 -41 35
-1 0 -12 -10 -23 -22z"/>
<path d="M4461 1936 c-52 -69 -178 -154 -285 -190 -110 -38 -115 -41 -142
-102 -27 -62 -30 -92 -10 -100 18 -7 223 66 282 101 24 14 44 32 44 40 0 8 5
15 10 15 6 0 10 -24 10 -54 0 -64 -8 -75 -90 -116 -40 -20 -61 -38 -69 -58
-18 -42 -11 -76 16 -80 30 -4 53 -68 53 -146 0 -66 15 -94 45 -83 16 7 85 137
85 162 0 8 7 32 16 54 13 34 23 42 64 56 27 9 54 22 60 30 16 19 4 49 -25 65
-30 16 -38 43 -39 130 -1 63 0 67 47 123 59 73 63 113 16 170 -17 20 -34 37
-39 37 -5 0 -27 -24 -49 -54z"/>
<path d="M1892 1953 c-23 -8 -59 -30 -79 -49 l-36 -34 6 -82 c3 -44 1 -91 -3
-104 -5 -12 -36 -53 -70 -90 -51 -57 -60 -72 -55 -93 14 -58 67 -63 131 -15
41 31 55 56 63 104 6 35 6 35 69 40 65 5 86 20 76 51 -2 9 4 32 15 50 41 71
35 166 -14 215 -27 27 -43 28 -103 7z"/>
<path d="M3943 1425 c-33 -33 -35 -39 -30 -84 3 -26 15 -67 27 -89 18 -35 27
-42 51 -42 31 0 34 3 99 90 55 74 52 95 -20 132 -30 15 -63 28 -73 28 -11 0
-35 -16 -54 -35z"/>
</g>
</svg>
