<?xml version="1.0" encoding="UTF-8"?>
<svg width="450px" height="400px" viewBox="0 0 450 400" version="1.1" xmlns="http://www.w3.org/2000/svg" xmlns:xlink="http://www.w3.org/1999/xlink">
    <!-- Generator: Sketch 52.6 (67491) - http://www.bohemiancoding.com/sketch -->
    <title>Artboard@2x</title>
    <desc>Created with Sketch.</desc>
    <defs>
        <path d="M7.25206739,0.0883649183 L111.167202,0.0883649183 C115.172408,0.0883649183 118.41927,3.26513443 118.41927,7.18387821 L118.41927,99.5438003 C118.41927,103.462544 115.172408,106.639314 111.167202,106.639314 L7.25206739,106.639314 C3.24686116,106.639314 4.90496298e-16,103.462544 0,99.5438003 L1.40236586e-15,7.18387821 C9.11869565e-16,3.26513443 3.24686116,0.0883649183 7.25206739,0.0883649183 Z" id="path-1"></path>
        <path d="M37.575802,80.1984087 C38.6671723,57.6358991 26.9349412,45.280239 2.37910879,43.1314286 C-4.71479836,18.4201085 4.28900687,4.18423934 29.3905245,0.423821065 L212.796993,0.423821065 C214.590027,0.423821065 216.043569,1.87736283 216.043569,3.67039746 L216.043569,3.67039746 C216.043569,5.4634321 214.590027,6.91697386 212.796993,6.91697386 L138.967019,6.91697386 L151.351159,20.568919 L116.154466,44.7430364 L37.575802,80.1984087 Z" id="path-3"></path>
        <path d="M54.9479685,47.7934316 C28.0469497,59.9023527 10.9062507,60.3553151 3.52587124,49.1523188 C-7.54469787,32.3478245 13.8495381,-0.569854401 35.3436164,0.0713564369 C49.673002,0.498830329 56.207786,16.4061887 54.9479685,47.7934316 Z" id="path-5"></path>
    </defs>
    <g id="Artboard" stroke="none" stroke-width="1" fill="none" fill-rule="evenodd">
        <g id="Group-5-Copy-4" transform="translate(0.000000, 16.000000)">
            <path d="M143.146475,80.9068314 L168.941419,106.100837 L129.567835,96.5783229 C118.023448,105.857379 102.417945,111.550837 85.2414837,111.550837 C49.68287,111.550837 20.856918,87.1503562 20.856918,57.0508373 C20.856918,26.9513185 49.68287,2.55083735 85.2414837,2.55083735 C120.800097,2.55083735 149.626049,26.9513185 149.626049,57.0508373 C149.626049,65.6064499 147.297064,73.7016102 143.146475,80.9068314 Z" id="Combined-Shape-Copy-2" fill="#FFFFFF" opacity="0.683426339" transform="translate(94.899169, 57.050837) rotate(-2.000000) translate(-94.899169, -57.050837) "></path>
            <text id="Howdy" font-family="GrubhubSans-Bold, Grubhub Sans" font-size="26" font-weight="bold" line-spacing="29.7999992" fill="#323232">
                <tspan x="48" y="54">See ya</tspan>
                <tspan x="51.848" y="83.7999992">there!</tspan>
            </text>
            <g id="img_freedeliveryvespa" transform="translate(0.000000, 73.000000)">
                <path d="M235.112997,132.381172 C184.168265,136.708834 164.017944,156.691853 174.662035,192.330228 C174.662035,192.330228 169.33999,194.853002 158.695898,199.898551" id="Path-18" stroke="#772F00" stroke-width="8" stroke-linecap="round"></path>
                <g id="eat24_Empty-Bag-Illus" transform="translate(330.029271, 1.373543)">
                    <path d="M63.3332504,28.0335682 C63.3332504,17.3149059 54.6898508,8.62571329 44.0276771,8.62571329 C33.3655035,8.62571329 24.7221039,17.3149059 24.7221039,28.0335682 L24.7221039,38.3302521 C24.7221039,40.699624 22.8013485,42.6203795 20.4319765,42.6203795 L20.4319765,42.6203795 C18.0626046,42.6203795 16.1418491,40.699624 16.1418491,38.3302521 L16.1418491,28.0335682 C16.1418491,12.551056 28.6267596,0 44.0276771,0 C59.4285947,0 71.9135051,12.551056 71.9135051,28.0335682 L71.9135051,38.3302521 C71.9135051,40.699624 69.9927497,42.6203795 67.6233777,42.6203795 L67.6233777,42.6203795 C65.2540058,42.6203795 63.3332504,40.699624 63.3332504,38.3302521 L63.3332504,28.0335682 Z" id="Rectangle-44" fill="#323232" fill-rule="nonzero" opacity="0.617697011"></path>
                    <g id="Group" transform="translate(0.000000, 29.593685)">
                        <mask id="mask-2" fill="white">
                            <use xlink:href="#path-1"></use>
                        </mask>
                        <use id="Rectangle-35" fill="#A95009" xlink:href="#path-1"></use>
                        <rect id="Rectangle-6" fill="#D37816" mask="url(#mask-2)" x="-3.03639153" y="-3.86078532" width="27.3275237" height="122.609699"></rect>
                        <path d="M66.2325282,38.7668931 L66.2325282,36.9653676 L64.6500122,37.547065 C64.354495,37.6555906 64.1157257,37.5036548 64.1114429,37.2062945 L64.1114429,34.0503692 C64.1114429,33.8398295 64.1553422,33.6184372 64.4840515,33.4968885 L69.8975838,31.4956759 C70.0881709,31.4273048 70.4018903,31.5152105 70.4018903,31.8570663 L70.4018903,38.7234828 C70.4018903,44.7347174 66.3363875,47.5042915 62.8479998,47.5042915 C60.4635187,47.5042915 57.691439,45.524784 57.691439,41.5136767 L57.691439,30.4028228 C57.691439,27.6028616 59.2225607,23.2976499 63.8491178,22.0723955 C67.2240098,21.1781444 70.4018903,23.3562537 70.4018903,27.0548072 L70.4018903,28.5622282 C70.4018903,28.7109083 70.2798288,28.8454801 70.1427774,28.9008281 L66.7796633,30.1401908 C66.4820047,30.2498017 66.2400232,30.09461 66.2400232,29.7929088 L66.2389525,28.4537025 C66.2389525,27.0385283 65.5215738,26.329856 64.7067601,26.3895451 C64.0075836,26.4416374 63.2355984,26.897445 62.7826862,27.5214674 C62.0695904,28.5014538 61.9903575,29.8113582 61.9903575,30.6231299 L61.9903575,39.6199045 C61.9903575,42.0389408 62.6884634,43.1079182 64.0461293,42.6976914 C66.0248096,42.0986299 66.2325282,39.3670398 66.2325282,38.7668931 Z M84.4803934,59.6794562 L81.0765921,58.4162179 C80.8913585,58.3435057 80.7168321,58.17095 80.7168321,57.9690923 L80.7168321,48.3406985 L77.2134544,47.0524993 L77.2134544,56.4670976 C77.2059594,56.756861 76.9725436,56.9055412 76.68238,56.8024418 L73.2732252,55.545715 C73.0772845,55.4740881 72.9134652,55.3004471 72.9134652,55.0985894 L72.9134652,31.8469734 C72.9188187,31.55721 73.1468809,31.4074446 73.4327617,31.5029471 L76.8536943,32.7640149 C77.0421401,32.8269598 77.2134544,33.0092829 77.2134544,33.2111405 L77.2134544,42.4965934 L80.7168321,43.7869631 L80.7179028,34.7348404 C80.7179028,34.4363949 80.9545307,34.2812032 81.2489772,34.3853878 L84.6592027,35.6464557 C84.8487191,35.7224236 85.0189627,35.8928088 85.0189627,36.0935813 L85.0189627,59.3321742 C85.0189627,59.6338755 84.778052,59.7890671 84.4803934,59.6794562 Z" id="Mask" fill="#FFFFFF" mask="url(#mask-2)"></path>
                        <path d="M50.1004602,68.7968139 L50.1004602,89.9886137 L63.9441927,89.9886137 L63.9441927,85.9525276 L54.6206831,85.9525276 L54.6206831,81.3176145 L62.5863784,81.3176145 L62.5863784,77.2816553 L54.6206831,77.2816553 L54.6206831,72.8326463 L63.9441927,72.8326463 L63.9441927,68.7968139 L50.1004602,68.7968139 L50.1004602,68.7968139 Z M75.9808524,75.4855551 L78.2978492,82.9899901 L73.5093105,82.9899901 L75.9808524,75.4855551 Z M74.0621155,68.7968139 L66.524672,89.9886137 L71.2284402,89.9886137 L72.2849105,86.7171455 L79.4477653,86.7171455 L80.4435082,89.9886137 L85.1422571,89.9886137 L77.6040081,68.7968139 L74.0621155,68.7968139 L74.0621155,68.7968139 Z M83.6013312,68.7968139 L83.6013312,72.8329635 L88.8830628,72.8329635 L88.8830628,89.9886137 L93.4021703,89.9886137 L93.4021703,72.8326463 L98.6827246,72.8326463 L98.6827246,68.7968139 L83.6013312,68.7968139 L83.6013312,68.7968139 Z" id="Shape" fill="#FFFFFF" mask="url(#mask-2)"></path>
                    </g>
                    <path d="M93.6971656,28.0335682 C93.6971656,17.3149059 85.0537661,8.62571329 74.3915924,8.62571329 C63.7294187,8.62571329 55.0860192,17.3149059 55.0860192,28.0335682 L55.0860192,38.3302521 C55.0860192,40.699624 53.1652637,42.6203795 50.7958918,42.6203795 L50.7958918,42.6203795 C48.4265199,42.6203795 46.5057644,40.699624 46.5057644,38.3302521 L46.5057644,28.0335682 C46.5057644,12.551056 58.9906749,0 74.3915924,0 C89.7925099,0 102.27742,12.551056 102.27742,28.0335682 L102.27742,38.3302521 C102.27742,40.699624 100.356665,42.6203795 97.987293,42.6203795 L97.987293,42.6203795 C95.6179211,42.6203795 93.6971656,40.699624 93.6971656,38.3302521 L93.6971656,28.0335682 Z" id="Rectangle-44" fill="#323232" fill-rule="nonzero"></path>
                </g>
                <ellipse id="Oval-4" fill="#323232" cx="42.64027" cy="254.057587" rx="42.5634429" ry="41.9018036"></ellipse>
                <ellipse id="Oval-4" fill="#C3C3C3" cx="42.64027" cy="254.057587" rx="16.370555" ry="16.1160783"></ellipse>
                <ellipse id="Oval-4-Copy" fill="#323232" cx="278.376261" cy="254.057587" rx="42.5634429" ry="41.9018036"></ellipse>
                <ellipse id="Oval-4-Copy" fill="#C3C3C3" cx="278.376261" cy="254.057587" rx="16.370555" ry="16.1160783"></ellipse>
                <g id="Group-8" transform="translate(180.229406, 136.792198)">
                    <mask id="mask-4" fill="white">
                        <use xlink:href="#path-3"></use>
                    </mask>
                    <use id="Path-6" fill="#9B0000" xlink:href="#path-3"></use>
                    <path d="M-1.37540551,44.3564629 C48.6053097,23.0821069 95.702522,10.5108966 139.916232,6.64283184 C182.207606,22.1150907 216.80964,22.1150907 243.722332,6.64283184 L200.46979,-42.6749934 L-4.25890831,-16.5655565 L-1.37540551,44.3564629 Z" id="Path-11" fill="#323232" mask="url(#mask-4)"></path>
                </g>
                <path d="M277.537801,116.71865 C218.339095,130.859847 199.435051,157.098386 220.825666,195.434267 C220.825666,195.434267 215.969449,199.315417 206.257014,207.077717" id="Path-18-Copy" stroke="#B65500" stroke-width="8" stroke-linecap="round"></path>
                <g id="Taco" transform="translate(266.560910, 69.000000) scale(-1, 1) translate(-266.560910, -69.000000) translate(163.060910, 0.000000)">
                    <path d="M90.7959614,-2.84217094e-14 C128.676681,1.33529338e-13 159.44498,45.7847508 183.100859,137.354252 L26.6773036,137.354252 C8.89243452,137.354252 2.84217094e-14,126.394948 8.52651283e-14,104.476338 C9.09659591e-14,34.635567 45.1400768,-2.23613842e-13 90.7959614,-2.84217094e-14 Z" id="Rectangle-9-Copy" fill="#DE8F0D"></path>
                    <path d="M27.0835306,132.931354 C19.6022171,132.11021 13.7825543,125.794183 13.7825543,118.124416 C13.7825543,115.452086 14.4890567,112.9441 15.7261843,110.775619 C10.9751943,108.279895 7.73665601,103.311756 7.73665601,97.5902838 C7.73665601,91.6419848 11.2370675,86.5079336 16.2982658,84.1198852 C14.7091846,81.7536301 13.7825543,78.9087197 13.7825543,75.8482613 C13.7825543,67.6207032 20.4794791,60.9509495 28.7405545,60.9509495 C36.3179349,60.9509495 42.5793526,66.5623956 43.5638549,73.8404056 C51.6387658,74.0529674 58.1191418,80.6389791 58.1191418,88.7324228 C58.1191418,92.4446653 56.7557955,95.8397732 54.5005666,98.4481956 C56.4368343,99.6574875 58.0752224,101.296181 59.2811707,103.230263 C67.3986123,103.395219 73.9280463,110.000396 73.9280463,118.124416 C73.9280463,126.351974 67.2311215,133.021728 58.9700461,133.021728 C57.5572827,133.021728 56.1902645,132.826665 54.8946628,132.462106 L54.8946628,133.061932 L27.0835306,133.061932 L27.0835306,132.931354 Z" id="Combined-Shape" fill="#772F00"></path>
                    <path d="M53.49845,21.4616019 L66.8495324,21.4616019 C68.8598489,21.4616019 70.4895325,23.0912855 70.4895325,25.1016021 L70.4895325,38.4247397 C70.4895325,40.4350562 68.8598489,42.0647398 66.8495324,42.0647398 L53.49845,42.0647398 C51.4881334,42.0647398 49.8584498,40.4350562 49.8584498,38.4247397 L49.8584498,25.1016021 C49.8584498,23.0912855 51.4881334,21.4616019 53.49845,21.4616019 Z" id="Rectangle-2-Copy-9" fill="#CF0400" transform="translate(60.173991, 31.763171) rotate(24.000000) translate(-60.173991, -31.763171) "></path>
                    <path d="M41.0138171,71.71688 L41.0160924,71.6848976 C33.12728,69.4795879 27.338606,62.2133251 27.338606,53.5895731 C27.338606,43.2167227 35.7135672,34.8078661 46.0446053,34.8078661 C50.4730857,34.8078661 54.5421418,36.3529728 57.7461913,38.9355577 L57.7499906,38.9275021 C59.0034465,39.8784234 60.564365,40.4423782 62.2564713,40.4423782 C66.3888866,40.4423782 69.7388711,37.0788355 69.7388711,32.9296954 C69.7388711,32.1177346 69.6105799,31.3358592 69.3732397,30.6033889 L69.3991168,30.5857986 C68.8100944,28.7606591 68.4918044,26.8131281 68.4918044,24.7909556 C68.4918044,14.4181052 76.8667656,6.00924854 87.1978037,6.00924854 C97.5288418,6.00924854 105.903803,14.4181052 105.903803,24.7909556 C105.903803,24.7935517 105.903802,24.7961477 105.903801,24.7987435 L110.892069,67.362825 L89.6919369,122.455832 L43.3475529,125.26453 C42.797902,125.31169 42.2416861,125.335755 41.6798722,125.335755 C31.0044661,125.335755 22.3503396,116.646603 22.3503396,105.927991 C22.3503396,95.9421504 29.8616449,87.7177692 39.5208797,86.6399306 C39.6165614,86.6435714 39.7127032,86.6454082 39.8092722,86.6454082 C43.9416875,86.6454082 47.2916719,83.2818655 47.2916719,79.1327253 C47.2916719,75.3953001 44.5735332,72.2952995 41.0138171,71.71688 Z" id="Combined-Shape" fill="#3CC807" transform="translate(66.621205, 65.672502) rotate(-3.000000) translate(-66.621205, -65.672502) "></path>
                    <path d="M32.8673673,69.5355903 L46.2184497,69.5355903 C48.2287663,69.5355903 49.8584498,71.1652739 49.8584498,73.1755904 L49.8584498,86.498728 C49.8584498,88.5090446 48.2287663,90.1387281 46.2184497,90.1387281 L32.8673673,90.1387281 C30.8570507,90.1387281 29.2273671,88.5090446 29.2273671,86.498728 L29.2273671,73.1755904 C29.2273671,71.1652739 30.8570507,69.5355903 32.8673673,69.5355903 Z" id="Rectangle-2" fill="#CF0400" transform="translate(39.542908, 79.837159) rotate(-34.000000) translate(-39.542908, -79.837159) "></path>
                    <path d="M126.12053,-5.68434189e-14 C157.267776,-5.68434189e-14 206.310827,36.5183972 206.310827,109.908768 C206.310827,125.099037 203.012746,134.247532 196.416585,137.354252 L37.8236516,137.354252 C43.3610433,133.981485 46.1297391,123.930936 46.1297391,107.202606 C46.1297391,35.591803 94.973283,-5.37338099e-14 126.12053,-5.68434189e-14 Z" id="Rectangle-9" fill="#FFC112"></path>
                </g>
                <path d="M155.785978,91.2161562 C167.319989,85.4140591 182.698671,82.5130106 201.922023,82.5130106" id="Path-10" stroke="#888888" stroke-width="8.81632688" stroke-linecap="round" stroke-linejoin="round"></path>
                <path d="M158.87121,95.3142156 C158.87121,95.3142156 83.5666574,121.905745 66.3775747,179.923627 C87.0272432,212.762254 98.6862252,244.083579 101.354521,273.887602 L101.354512,273.887603 C101.493012,275.434606 102.789379,276.620097 104.34257,276.620097 L206.42466,276.620097 C211.405073,276.620097 215.963128,273.821981 218.217201,269.380847 L231.72018,242.776332 L339.477593,242.776336 C346.781279,242.776336 352.702087,236.855528 352.702087,229.551842 C352.702087,228.067944 352.452341,226.594629 351.963313,225.193628 C339.366156,189.104398 316.474194,171.059784 283.287428,171.059784 C245.089466,171.059784 216.713838,197.382712 198.160542,250.028567 L153.472768,250.028567 C146.169084,250.028567 140.248278,244.107761 140.248278,236.804077 C140.248278,234.861981 140.676029,232.943721 141.501134,231.185615 L147.709972,217.956021 C150.263207,212.515673 148.827133,206.037801 144.213967,202.186165 C114.700977,177.545107 119.586724,141.921123 158.87121,95.3142156 Z" id="Path-5" fill="#CF0400"></path>
                <path d="M100.395261,273.336133 C96.1308363,245.801738 85.0644501,225.945491 67.1961025,213.767391 C50.4817405,202.375786 31.2429127,200.593712 9.47961907,208.42117 C7.19022984,209.24458 4.66730274,208.054791 3.84450418,205.763701 C3.27139273,204.167868 3.66382063,202.384518 4.85376343,201.177223 C32.8586056,172.763994 60.4604499,167.559671 87.6592962,185.564254 C115.753328,204.161415 122.700879,233.668618 108.501947,274.085861 C107.733178,276.274156 105.33732,277.424449 103.150648,276.655111 C101.691098,276.141596 100.632222,274.866136 100.395261,273.336133 Z" id="Path-3" fill="#F50700"></path>
                <g id="Group-7" transform="translate(103.882928, 47.700428)">
                    <mask id="mask-6" fill="white">
                        <use xlink:href="#path-5"></use>
                    </mask>
                    <use id="Path-7" fill="#CF0400" xlink:href="#path-5"></use>
                    <polygon id="Path-4" fill="#C3C3C3" mask="url(#mask-6)" points="5.7670056 58.0209708 60.5535588 -23.2083883 -5.7670056 -5.80209708 -14.417514 60.9220194"></polygon>
                </g>
                <path d="" id="Path-15" stroke="#979797"></path>
                <path d="M275.845632,65.5468167 C283.06198,65.5468167 288.911985,65.5821299 288.911985,58.3755573 C288.911985,51.1689847 283.06198,45.3269033 275.845632,45.3269033 C268.629285,45.3269033 262.77928,51.1689847 262.77928,58.3755573 C262.77928,65.5821299 268.629285,65.5468167 275.845632,65.5468167 Z" id="Oval-7" fill="#3C3C3C"></path>
                <path d="M215.32779,65.5468167 C222.544137,65.5468167 228.394142,65.5821299 228.394142,58.3755573 C228.394142,51.1689847 222.544137,45.3269033 215.32779,45.3269033 C208.111443,45.3269033 202.261437,51.1689847 202.261437,58.3755573 C202.261437,65.5821299 208.111443,65.5468167 215.32779,65.5468167 Z" id="Oval-7-Copy" fill="#3C3C3C"></path>
                <ellipse id="Oval-7" fill="#FFFFFF" cx="279.971849" cy="52.1946159" rx="4.12621654" ry="4.12062757"></ellipse>
                <ellipse id="Oval-7-Copy-2" fill="#FFFFFF" cx="219.454006" cy="52.1946159" rx="4.12621654" ry="4.12062757"></ellipse>
                <path d="" id="Path-21" stroke="#979797"></path>
                <path d="M233.208061,69.6593608 C236.912312,76.513458 241.955465,79.4594826 248.337522,78.4974344 C254.719579,77.5353862 258.387327,73.3462552 259.340766,65.9300412" id="Path-22" stroke="#3C3C3C" stroke-width="4.5" stroke-linecap="round"></path>
            </g>
        </g>
    </g>
</svg>