<?xml version="1.0" standalone="no"?>
<!DOCTYPE svg PUBLIC "-//W3C//DTD SVG 20010904//EN"
 "http://www.w3.org/TR/2001/REC-SVG-20010904/DTD/svg10.dtd">
<svg version="1.0" xmlns="http://www.w3.org/2000/svg"
 width="698.000000pt" height="400.000000pt" viewBox="0 0 698.000000 400.000000"
 preserveAspectRatio="xMidYMid meet">

<g transform="translate(0.000000,400.000000) scale(0.100000,-0.100000)"
fill="#000000" stroke="none">
<path d="M1984 3979 c-10 -12 -59 -52 -109 -89 -163 -123 -316 -282 -465 -481
-19 -26 -40 -44 -47 -42 -6 2 -23 -17 -38 -44 -15 -26 -36 -59 -47 -73 -10
-14 -29 -45 -41 -70 -12 -25 -39 -75 -60 -111 -21 -37 -48 -98 -61 -135 -13
-38 -38 -105 -56 -149 -17 -44 -38 -114 -46 -155 -8 -41 -21 -107 -30 -146
-15 -69 -17 -72 -47 -77 -18 -3 -82 0 -143 6 -103 9 -121 8 -220 -13 -60 -13
-121 -23 -136 -22 -17 1 -33 -6 -41 -18 -8 -11 -17 -17 -20 -14 -3 4 -27 3
-52 0 -34 -6 -45 -12 -45 -25 0 -44 41 -49 310 -36 85 4 157 10 160 14 9 11
90 13 90 1 0 -7 6 -8 19 0 11 5 35 10 53 9 18 0 45 2 61 6 15 4 27 3 27 -2 0
-13 127 -8 144 6 9 7 37 11 68 10 29 -1 63 3 75 9 12 7 39 12 60 12 22 0 44 5
49 10 6 6 50 11 97 11 48 1 90 5 92 10 3 4 17 4 30 -1 19 -7 23 -6 19 4 -4 10
2 14 19 12 14 0 23 -5 20 -10 -4 -5 15 -5 43 0 27 4 63 9 79 10 17 1 38 5 48
9 9 4 32 5 50 2 17 -3 79 0 137 5 58 6 131 11 163 10 31 0 57 4 57 9 0 12 42
12 73 0 14 -6 28 -7 32 -3 3 3 22 5 41 3 18 -1 34 1 34 6 0 5 19 10 42 12 22
1 49 6 60 12 10 5 26 6 36 1 9 -4 35 -7 57 -6 22 2 105 5 185 9 171 8 202 10
295 25 38 6 80 9 92 7 15 -3 23 1 23 9 0 11 21 13 97 9 67 -3 120 1 166 11 37
9 74 13 82 10 8 -3 15 -1 15 4 0 6 14 10 31 10 17 0 28 -4 24 -10 -8 -13 11
-13 35 0 11 6 77 13 147 15 70 3 140 10 155 16 16 6 37 9 48 6 11 -3 20 -1 20
4 0 5 30 9 68 9 42 0 62 4 53 9 -9 6 6 9 43 10 31 0 62 3 68 7 18 12 158 13
151 1 -3 -5 4 -6 18 -1 13 4 34 8 45 9 12 1 37 9 57 18 28 14 40 15 61 6 14
-7 33 -8 43 -4 24 11 40 14 90 17 24 2 43 6 43 11 0 4 -4 7 -10 7 -5 0 -10 5
-10 10 0 6 9 10 21 10 15 0 19 -5 15 -15 -3 -8 0 -15 7 -16 30 -3 85 3 121 12
27 8 41 7 46 0 7 -13 70 -3 70 10 0 5 27 9 60 9 46 0 61 4 69 18 7 11 10 13
11 3 0 -11 3 -11 17 0 13 11 17 11 20 2 6 -16 33 -17 33 -2 0 8 5 7 15 -1 12
-10 23 -10 53 -1 47 15 233 21 250 8 8 -6 16 -6 25 1 18 15 132 28 123 13 -9
-14 15 -14 87 0 31 7 57 16 57 21 0 5 14 7 32 4 18 -3 38 0 45 6 7 6 26 8 43
6 16 -2 31 -1 32 4 2 4 30 8 63 9 33 0 112 9 175 19 63 10 137 19 164 19 27 1
57 6 67 12 10 5 27 9 38 9 21 0 41 27 41 54 0 18 -53 22 -93 7 -18 -7 -26 -5
-35 10 -9 15 -17 17 -30 10 -10 -5 -76 -9 -147 -8 -125 1 -226 -14 -290 -45
-12 -5 -50 -8 -85 -6 l-65 3 -37 75 c-20 41 -55 114 -77 161 -22 47 -56 106
-74 130 -18 24 -50 72 -72 106 -22 34 -46 62 -54 63 -8 0 -12 3 -8 6 14 14
-103 159 -240 297 -123 123 -152 147 -170 142 -13 -3 -23 -1 -23 5 0 6 4 8 10
5 5 -3 7 0 4 9 -3 8 -29 32 -57 54 -103 77 -81 72 -307 72 l-205 0 60 -35 c82
-47 116 -74 93 -75 -10 0 -18 4 -18 9 0 5 -40 30 -89 55 -67 34 -100 46 -133
46 l-43 -1 99 -50 c116 -58 198 -106 282 -165 53 -38 61 -40 71 -26 8 14 5 22
-16 39 -39 34 -20 28 25 -8 25 -20 32 -30 20 -27 -10 1 -21 -3 -24 -11 -3 -9
0 -11 8 -6 9 5 11 4 6 -4 -8 -12 -1 -20 54 -64 268 -216 578 -628 605 -804 7
-42 6 -43 -20 -43 -15 0 -53 -7 -84 -15 -31 -8 -65 -15 -76 -15 -46 -2 -126
-7 -225 -14 l-105 -8 -68 101 c-37 56 -74 104 -82 108 -8 3 -15 11 -15 18 0
20 -55 81 -184 203 -71 66 -125 110 -133 107 -8 -2 -11 -1 -8 4 3 5 -50 42
-117 81 -68 40 -137 81 -155 91 -32 20 -227 94 -273 103 -14 3 -43 10 -65 15
-52 13 -95 14 -95 1 0 -5 6 -10 14 -10 8 0 18 -5 22 -12 8 -12 9 -12 -176 16
-52 8 -128 15 -169 15 -41 1 -77 3 -79 6 -11 10 11 20 61 27 32 4 13 5 -48 2
-410 -20 -757 -146 -1055 -385 -121 -97 -178 -153 -262 -259 -50 -61 -64 -86
-55 -93 8 -5 3 -7 -15 -4 -22 3 -30 -2 -49 -37 -13 -23 -33 -56 -46 -75 -12
-18 -20 -37 -18 -41 3 -5 1 -11 -5 -15 -15 -9 -49 -79 -86 -175 -37 -97 -37
-97 -171 -102 -46 -2 -83 -7 -83 -11 0 -5 -12 -8 -27 -7 -16 1 -30 1 -33 0 -3
-1 -58 -2 -122 -4 l-116 -2 3 40 c6 66 81 270 160 431 67 137 161 288 251 405
43 56 276 308 286 309 4 1 43 30 87 65 44 36 89 70 101 76 23 12 22 35 -1 35
-28 1 -247 -178 -241 -197 1 -5 -1 -7 -6 -4 -10 6 -147 -132 -224 -224 -71
-85 -199 -282 -194 -297 3 -7 1 -12 -5 -10 -17 4 -119 -204 -174 -353 -15 -41
-40 -120 -55 -175 l-27 -100 -41 -3 -41 -3 25 88 c13 48 27 102 31 118 3 17 9
35 14 40 4 6 21 47 38 90 16 44 41 105 55 135 19 40 22 56 13 62 -9 6 -8 8 3
8 8 0 30 28 47 63 39 75 202 310 269 387 191 222 382 384 608 516 l91 54 -176
0 c-166 0 -177 -1 -195 -21z m3073 -95 c-3 -3 -12 -4 -19 -1 -8 3 -5 6 6 6 11
1 17 -2 13 -5z m75 -168 c6 4 8 3 5 -3 -8 -13 27 -46 37 -36 4 5 6 3 4 -3 -1
-6 31 -48 72 -94 174 -193 313 -397 402 -592 32 -70 58 -129 58 -132 0 -3 -13
-6 -28 -6 -20 0 -33 7 -41 23 l-11 22 6 -22 c4 -18 1 -23 -15 -23 -12 0 -22 9
-26 23 -22 72 -140 302 -217 421 -88 138 -139 204 -233 304 -58 62 -64 72 -36
65 36 -9 24 18 -31 76 l-53 55 48 -42 c26 -24 52 -40 59 -36z m-3164 -86 c-7
-10 -14 -17 -17 -15 -4 4 18 35 25 35 2 0 -1 -9 -8 -20z m1553 -44 c5 3 9 1 9
-5 0 -5 -9 -9 -19 -8 -12 1 -17 6 -13 16 4 10 7 11 10 3 2 -7 8 -10 13 -6z
m-1804 -52 c-3 -3 -12 -4 -19 -1 -8 3 -5 6 6 6 11 1 17 -2 13 -5z m2083 -43
c19 -5 71 -19 115 -31 87 -23 97 -28 91 -39 -3 -3 15 -8 39 -9 30 -1 52 -9 70
-26 52 -46 61 -52 72 -49 15 5 68 -22 113 -57 19 -15 54 -37 78 -49 24 -12 53
-33 64 -47 12 -13 28 -22 36 -19 7 2 10 0 7 -5 -3 -6 1 -13 10 -16 14 -6 14
-8 -2 -20 -17 -13 -17 -14 0 -8 11 4 26 -1 41 -15 12 -12 26 -18 29 -14 4 3 7
-3 7 -14 0 -14 -10 -23 -37 -30 l-38 -11 45 5 c40 4 48 1 74 -26 l29 -30 -34
-10 -34 -11 40 5 c32 4 45 0 58 -15 9 -11 14 -20 11 -20 -4 0 -1 -6 5 -13 6
-8 8 -17 4 -20 -3 -4 0 -7 8 -7 13 0 89 -101 89 -119 0 -5 -15 -7 -33 -5 -18
2 -55 0 -80 -5 -29 -5 -50 -5 -53 1 -3 5 -15 3 -27 -5 -12 -8 -69 -20 -127
-26 -58 -7 -131 -19 -163 -27 -52 -13 -65 -13 -110 0 -45 13 -60 13 -117 1
-80 -18 -142 -20 -120 -4 18 12 -76 3 -125 -12 -16 -5 -42 -10 -57 -11 -16 -1
-28 -6 -28 -10 0 -4 -24 -8 -53 -8 -29 0 -107 -7 -172 -16 -66 -8 -136 -13
-155 -11 -19 3 -93 -2 -165 -10 -71 -8 -158 -12 -192 -9 -39 3 -65 1 -69 -5
-3 -6 -16 -8 -27 -5 -12 3 -27 0 -34 -5 -7 -6 -59 -13 -115 -16 -74 -4 -108
-10 -121 -22 -15 -12 -50 -17 -157 -21 -83 -3 -136 -1 -132 4 3 6 -3 6 -14 1
-34 -15 -81 -17 -104 -5 -14 7 -25 8 -33 2 -7 -6 -32 -12 -57 -15 -58 -7 -91
-13 -112 -22 -11 -4 -18 -3 -18 4 0 8 -5 9 -19 1 -11 -5 -27 -10 -35 -10 -35
0 4 55 44 63 25 4 25 4 -2 6 l-27 1 42 85 c35 71 47 87 72 94 25 8 26 9 7 10
-21 1 -18 7 35 84 51 74 78 107 175 215 16 17 38 32 49 32 10 0 18 4 16 9 -3
12 90 111 97 104 3 -4 6 5 6 18 0 18 3 20 9 10 8 -12 17 -12 53 -3 23 6 31 10
15 8 -39 -5 -22 12 72 69 45 27 77 53 75 60 -7 18 22 40 32 24 4 -8 3 -9 -4
-5 -7 4 -12 1 -12 -9 0 -10 5 -15 13 -12 111 49 215 89 243 92 19 3 42 9 52
14 49 26 143 44 197 37 31 -3 54 -3 51 2 -3 5 9 9 27 9 18 1 73 5 122 10 89 8
284 -10 375 -36z m610 -217 c0 -7 6 -15 13 -17 6 -3 1 -6 -12 -6 -13 -1 -21 2
-18 6 4 3 2 11 -3 18 -7 8 -5 12 5 12 8 0 15 -6 15 -13z m360 -289 c19 -24 43
-47 53 -51 10 -3 16 -11 14 -17 -2 -7 14 -38 35 -69 41 -60 42 -78 3 -78 -18
0 -35 19 -83 93 -33 50 -92 129 -132 175 -53 61 -69 87 -61 95 8 8 5 18 -11
36 -12 14 16 -11 62 -56 47 -46 101 -103 120 -128z m54 -21 c3 -8 2 -12 -4 -9
-6 3 -10 10 -10 16 0 14 7 11 14 -7z m-2714 -525 c12 -8 10 -9 -7 -4 -12 3
-24 1 -27 -4 -4 -6 -13 -8 -21 -5 -8 4 -12 10 -9 15 7 12 46 11 64 -2z"/>
<path d="M3465 3483 c-11 -3 -24 -9 -29 -14 -15 -14 25 -10 59 6 22 10 25 13
10 13 -11 0 -29 -2 -40 -5z"/>
<path d="M3080 3470 c-18 -12 -2 -12 25 0 13 6 15 9 5 9 -8 0 -22 -4 -30 -9z"/>
<path d="M3790 3470 c-9 -6 -10 -10 -3 -10 6 0 15 5 18 10 8 12 4 12 -15 0z"/>
<path d="M3335 3435 c-40 -14 -40 -14 -5 -9 19 4 39 10 45 15 11 11 10 11 -40
-6z"/>
<path d="M3248 3413 c6 -2 18 -2 25 0 6 3 1 5 -13 5 -14 0 -19 -2 -12 -5z"/>
<path d="M3556 3411 c-4 -5 3 -7 14 -4 23 6 26 13 6 13 -8 0 -17 -4 -20 -9z"/>
<path d="M3160 3400 l-25 -8 27 -1 c15 -1 30 4 33 9 7 11 0 11 -35 0z"/>
<path d="M3490 3390 c-8 -5 -10 -10 -5 -10 6 0 17 5 25 10 8 5 11 10 5 10 -5
0 -17 -5 -25 -10z"/>
<path d="M3805 3385 c-39 -14 -40 -14 -5 -8 41 7 82 22 60 22 -8 0 -33 -7 -55
-14z"/>
<path d="M3093 3383 c9 -2 23 -2 30 0 6 3 -1 5 -18 5 -16 0 -22 -2 -12 -5z"/>
<path d="M2998 3373 c7 -3 16 -2 19 1 4 3 -2 6 -13 5 -11 0 -14 -3 -6 -6z"/>
<path d="M3685 3360 c-13 -5 -14 -9 -5 -9 8 0 24 4 35 9 13 5 14 9 5 9 -8 0
-24 -4 -35 -9z"/>
<path d="M3378 3353 c7 -3 16 -2 19 1 4 3 -2 6 -13 5 -11 0 -14 -3 -6 -6z"/>
<path d="M3910 3319 c-93 -17 -151 -31 -147 -35 2 -3 26 0 53 6 27 7 92 18
144 25 70 10 82 13 45 13 -27 0 -70 -4 -95 -9z"/>
<path d="M3500 3305 c-19 -7 -28 -13 -20 -13 8 0 31 6 50 13 19 7 28 13 20 13
-8 0 -31 -6 -50 -13z"/>
<path d="M2908 3283 c6 -2 18 -2 25 0 6 3 1 5 -13 5 -14 0 -19 -2 -12 -5z"/>
<path d="M2828 3273 c7 -3 16 -2 19 1 4 3 -2 6 -13 5 -11 0 -14 -3 -6 -6z"/>
<path d="M3670 3269 c-52 -15 -63 -19 -58 -24 2 -2 33 4 69 14 64 20 55 28
-11 10z"/>
<path d="M3368 3263 c6 -2 18 -2 25 0 6 3 1 5 -13 5 -14 0 -19 -2 -12 -5z"/>
<path d="M3305 3250 c-8 -13 5 -13 25 0 13 8 13 10 -2 10 -9 0 -20 -4 -23 -10z"/>
<path d="M4065 3250 c-18 -5 3 -6 50 -3 44 3 82 7 84 9 8 7 -104 2 -134 -6z"/>
<path d="M3537 3228 c-73 -25 -70 -33 4 -11 59 18 64 21 58 27 -2 2 -30 -6
-62 -16z"/>
<path d="M3980 3240 c-20 -6 -21 -8 -5 -8 11 0 29 3 40 8 25 11 -1 11 -35 0z"/>
<path d="M3238 3233 c7 -3 16 -2 19 1 4 3 -2 6 -13 5 -11 0 -14 -3 -6 -6z"/>
<path d="M3178 3223 c6 -2 18 -2 25 0 6 3 1 5 -13 5 -14 0 -19 -2 -12 -5z"/>
<path d="M3860 3220 c-17 -6 -9 -7 25 -3 28 3 52 7 54 9 8 7 -54 2 -79 -6z"/>
<path d="M3048 3203 c6 -2 18 -2 25 0 6 3 1 5 -13 5 -14 0 -19 -2 -12 -5z"/>
<path d="M3798 3203 c7 -3 16 -2 19 1 4 3 -2 6 -13 5 -11 0 -14 -3 -6 -6z"/>
<path d="M2893 3193 c9 -2 23 -2 30 0 6 3 -1 5 -18 5 -16 0 -22 -2 -12 -5z"/>
<path d="M3410 3190 l-25 -8 25 0 c14 0 34 3 45 8 l20 9 -20 -1 c-11 0 -31 -4
-45 -8z"/>
<path d="M3700 3184 l-45 -14 40 6 c22 3 47 10 55 15 21 12 3 10 -50 -7z"/>
<path d="M4180 3174 l-125 -13 120 5 c66 3 145 9 175 14 l55 8 -50 -1 c-27 0
-106 -6 -175 -13z"/>
<path d="M3310 3164 l-45 -14 40 6 c22 3 47 10 55 15 21 12 3 10 -50 -7z"/>
<path d="M2658 3163 c7 -3 16 -2 19 1 4 3 -2 6 -13 5 -11 0 -14 -3 -6 -6z"/>
<path d="M3585 3150 c-13 -6 -15 -9 -5 -9 8 0 22 4 30 9 18 12 2 12 -25 0z"/>
<path d="M4003 3153 c9 -2 25 -2 35 0 9 3 1 5 -18 5 -19 0 -27 -2 -17 -5z"/>
<path d="M3195 3140 c-3 -6 1 -7 9 -4 18 7 21 14 7 14 -6 0 -13 -4 -16 -10z"/>
<path d="M3948 3143 c7 -3 16 -2 19 1 4 3 -2 6 -13 5 -11 0 -14 -3 -6 -6z"/>
<path d="M3898 3133 c7 -3 16 -2 19 1 4 3 -2 6 -13 5 -11 0 -14 -3 -6 -6z"/>
<path d="M2978 3123 c-43 -2 -78 -7 -78 -11 0 -10 151 -2 170 9 13 7 13 8 0 7
-8 -1 -50 -4 -92 -5z"/>
<path d="M3450 3110 c-49 -17 -51 -18 -15 -13 42 6 111 32 85 32 -8 0 -40 -9
-70 -19z"/>
<path d="M3805 3123 c-71 -16 -175 -46 -172 -49 5 -5 207 43 215 51 6 6 -13 5
-43 -2z"/>
<path d="M3358 3083 c6 -2 18 -2 25 0 6 3 1 5 -13 5 -14 0 -19 -2 -12 -5z"/>
<path d="M4208 3083 c12 -2 32 -2 45 0 12 2 2 4 -23 4 -25 0 -35 -2 -22 -4z"/>
<path d="M4058 3073 c12 -2 32 -2 45 0 12 2 2 4 -23 4 -25 0 -35 -2 -22 -4z"/>
<path d="M3258 3063 c6 -2 18 -2 25 0 6 3 1 5 -13 5 -14 0 -19 -2 -12 -5z"/>
<path d="M3580 3060 c-14 -5 -51 -16 -83 -25 -32 -9 -56 -19 -54 -22 6 -5 177
45 177 52 0 7 -10 5 -40 -5z"/>
<path d="M3983 3063 c9 -2 25 -2 35 0 9 3 1 5 -18 5 -19 0 -27 -2 -17 -5z"/>
<path d="M3186 3052 c-3 -5 8 -6 25 -4 16 2 29 6 29 8 0 8 -49 4 -54 -4z"/>
<path d="M2475 3040 l-20 -9 20 0 c11 0 27 4 35 9 13 9 13 10 0 9 -8 0 -24 -4
-35 -9z"/>
<path d="M3045 3040 l-70 -6 70 -2 c39 -1 77 3 85 8 13 9 13 10 0 8 -8 -1 -46
-4 -85 -8z"/>
<path d="M3823 3039 c-18 -5 -33 -11 -33 -14 0 -7 75 7 85 16 11 11 -9 10 -52
-2z"/>
<path d="M2410 3020 c-9 -6 -10 -10 -3 -10 6 0 15 5 18 10 8 12 4 12 -15 0z"/>
<path d="M2878 3023 c7 -3 16 -2 19 1 4 3 -2 6 -13 5 -11 0 -14 -3 -6 -6z"/>
<path d="M4418 3023 c6 -2 18 -2 25 0 6 3 1 5 -13 5 -14 0 -19 -2 -12 -5z"/>
<path d="M3748 3013 c7 -3 16 -2 19 1 4 3 -2 6 -13 5 -11 0 -14 -3 -6 -6z"/>
<path d="M3398 3003 c7 -3 16 -2 19 1 4 3 -2 6 -13 5 -11 0 -14 -3 -6 -6z"/>
<path d="M3708 3003 c7 -3 16 -2 19 1 4 3 -2 6 -13 5 -11 0 -14 -3 -6 -6z"/>
<path d="M4253 3003 c9 -2 23 -2 30 0 6 3 -1 5 -18 5 -16 0 -22 -2 -12 -5z"/>
<path d="M3348 2993 c6 -2 18 -2 25 0 6 3 1 5 -13 5 -14 0 -19 -2 -12 -5z"/>
<path d="M3668 2993 c7 -3 16 -2 19 1 4 3 -2 6 -13 5 -11 0 -14 -3 -6 -6z"/>
<path d="M4113 2993 c9 -2 23 -2 30 0 6 3 -1 5 -18 5 -16 0 -22 -2 -12 -5z"/>
<path d="M4168 2993 c7 -3 16 -2 19 1 4 3 -2 6 -13 5 -11 0 -14 -3 -6 -6z"/>
<path d="M3990 2980 c-20 -6 -21 -8 -5 -8 11 -1 38 3 60 7 l40 9 -35 0 c-19 0
-46 -4 -60 -8z"/>
<path d="M3550 2960 c-30 -10 -48 -18 -39 -19 20 -1 81 19 94 30 11 11 13 11
-55 -11z"/>
<path d="M3875 2960 c-27 -7 -28 -8 -5 -8 14 0 34 3 45 8 25 11 2 11 -40 0z"/>
<path d="M4548 2953 c7 -3 16 -2 19 1 4 3 -2 6 -13 5 -11 0 -14 -3 -6 -6z"/>
<path d="M3013 2943 c9 -2 25 -2 35 0 9 3 1 5 -18 5 -19 0 -27 -2 -17 -5z"/>
<path d="M2888 2933 c6 -2 18 -2 25 0 6 3 1 5 -13 5 -14 0 -19 -2 -12 -5z"/>
<path d="M4408 2933 c7 -3 16 -2 19 1 4 3 -2 6 -13 5 -11 0 -14 -3 -6 -6z"/>
<path d="M2398 2923 c7 -3 16 -2 19 1 4 3 -2 6 -13 5 -11 0 -14 -3 -6 -6z"/>
<path d="M3738 2923 c7 -3 16 -2 19 1 4 3 -2 6 -13 5 -11 0 -14 -3 -6 -6z"/>
<path d="M4368 2923 c7 -3 16 -2 19 1 4 3 -2 6 -13 5 -11 0 -14 -3 -6 -6z"/>
<path d="M2350 2910 c-13 -8 -13 -10 2 -10 9 0 20 5 23 10 8 13 -5 13 -25 0z"/>
<path d="M2728 2913 c6 -2 18 -2 25 0 6 3 1 5 -13 5 -14 0 -19 -2 -12 -5z"/>
<path d="M3660 2905 c-19 -7 -28 -13 -20 -13 8 0 31 6 50 13 19 7 28 13 20 13
-8 0 -31 -6 -50 -13z"/>
<path d="M4193 2913 c15 -2 37 -2 50 0 12 2 0 4 -28 4 -27 0 -38 -2 -22 -4z"/>
<path d="M3343 2903 c9 -2 23 -2 30 0 6 3 -1 5 -18 5 -16 0 -22 -2 -12 -5z"/>
<path d="M4040 2899 c-23 -5 -10 -5 35 -2 39 3 72 7 74 9 7 7 -72 2 -109 -7z"/>
<path d="M3255 2890 l-30 -8 27 -1 c15 0 30 4 33 9 3 6 5 9 3 9 -2 -1 -16 -5
-33 -9z"/>
<path d="M3570 2875 c-19 -7 -28 -14 -20 -14 8 0 29 6 45 14 39 17 21 18 -25
0z"/>
<path d="M3895 2875 c-66 -17 -37 -17 45 0 36 7 52 13 35 13 -16 0 -52 -6 -80
-13z"/>
<path d="M3090 2870 c-55 -7 -55 -7 -10 -7 25 -1 68 2 95 7 47 7 48 7 10 7
-22 0 -65 -3 -95 -7z"/>
<path d="M4588 2873 c7 -3 16 -2 19 1 4 3 -2 6 -13 5 -11 0 -14 -3 -6 -6z"/>
<path d="M2933 2853 c9 -2 25 -2 35 0 9 3 1 5 -18 5 -19 0 -27 -2 -17 -5z"/>
<path d="M3508 2853 c7 -3 16 -2 19 1 4 3 -2 6 -13 5 -11 0 -14 -3 -6 -6z"/>
<path d="M3750 2840 c-73 -24 -52 -25 30 -1 36 11 56 20 45 20 -11 0 -45 -8
-75 -19z"/>
<path d="M2745 2834 c-38 -7 -85 -16 -104 -19 -18 -4 -31 -8 -28 -11 4 -4 229
32 252 41 24 9 -56 2 -120 -11z"/>
<path d="M3418 2836 c-25 -6 -50 -14 -53 -18 -4 -4 21 0 56 8 35 8 65 17 68
19 7 7 -18 4 -71 -9z"/>
<path d="M4355 2840 c-19 -8 -19 -9 2 -9 12 -1 25 4 28 9 7 12 -2 12 -30 0z"/>
<path d="M4195 2830 l-40 -7 42 -2 c23 0 45 4 48 9 3 6 3 9 -2 9 -4 -1 -26 -5
-48 -9z"/>
<path d="M4278 2833 c6 -2 18 -2 25 0 6 3 1 5 -13 5 -14 0 -19 -2 -12 -5z"/>
<path d="M3255 2804 l-60 -13 60 5 c33 3 64 10 70 15 11 11 9 11 -70 -7z"/>
<path d="M3580 2789 c-47 -15 -78 -28 -69 -29 16 0 159 46 167 55 9 9 -11 4
-98 -26z"/>
<path d="M4015 2810 c-27 -7 -28 -8 -5 -8 14 0 45 3 70 7 l45 8 -40 1 c-22 0
-53 -4 -70 -8z"/>
<path d="M2278 2793 c7 -3 16 -2 19 1 4 3 -2 6 -13 5 -11 0 -14 -3 -6 -6z"/>
<path d="M3138 2783 c12 -2 30 -2 40 0 9 3 -1 5 -23 4 -22 0 -30 -2 -17 -4z"/>
<path d="M3898 2783 c7 -3 16 -2 19 1 4 3 -2 6 -13 5 -11 0 -14 -3 -6 -6z"/>
<path d="M2165 2770 c-4 -7 3 -8 22 -4 38 9 42 14 10 14 -14 0 -29 -5 -32 -10z"/>
<path d="M2890 2769 c-97 -12 -116 -20 -25 -12 39 3 106 9 150 13 l80 7 -65 0
c-36 0 -99 -3 -140 -8z"/>
<path d="M3848 2773 c7 -3 16 -2 19 1 4 3 -2 6 -13 5 -11 0 -14 -3 -6 -6z"/>
<path d="M3785 2763 c-11 -3 -24 -9 -29 -14 -5 -5 5 -4 24 1 51 15 55 25 5 13z"/>
<path d="M3405 2744 l-50 -14 50 6 c28 3 54 10 60 15 11 11 4 10 -60 -7z"/>
<path d="M4335 2750 c-3 -5 -1 -10 4 -10 6 0 11 5 11 10 0 6 -2 10 -4 10 -3 0
-8 -4 -11 -10z"/>
<path d="M4378 2753 c7 -3 16 -2 19 1 4 3 -2 6 -13 5 -11 0 -14 -3 -6 -6z"/>
<path d="M2758 2743 c7 -3 16 -2 19 1 4 3 -2 6 -13 5 -11 0 -14 -3 -6 -6z"/>
<path d="M4145 2740 l-50 -7 50 -1 c28 0 59 3 70 8 l20 9 -20 -1 c-11 -1 -42
-4 -70 -8z"/>
<path d="M4288 2743 c6 -2 18 -2 25 0 6 3 1 5 -13 5 -14 0 -19 -2 -12 -5z"/>
<path d="M2652 2728 c-24 -5 -42 -11 -40 -14 3 -2 34 2 69 10 35 8 53 14 39
14 -14 0 -45 -5 -68 -10z"/>
<path d="M4058 2723 c7 -3 16 -2 19 1 4 3 -2 6 -13 5 -11 0 -14 -3 -6 -6z"/>
<path d="M3268 2713 c7 -3 16 -2 19 1 4 3 -2 6 -13 5 -11 0 -14 -3 -6 -6z"/>
<path d="M4008 2713 c6 -2 18 -2 25 0 6 3 1 5 -13 5 -14 0 -19 -2 -12 -5z"/>
<path d="M3500 2679 c-58 -15 -96 -28 -84 -28 23 -1 203 44 212 53 9 10 -18 5
-128 -25z"/>
<path d="M2110 2674 l-55 -13 55 6 c50 5 111 24 70 22 -8 -1 -40 -7 -70 -15z"/>
<path d="M2470 2680 c-13 -8 -12 -10 3 -10 9 0 17 5 17 10 0 12 -1 12 -20 0z"/>
<path d="M2508 2683 c7 -3 16 -2 19 1 4 3 -2 6 -13 5 -11 0 -14 -3 -6 -6z"/>
<path d="M2410 2660 c-9 -6 -10 -10 -3 -10 6 0 15 5 18 10 8 12 4 12 -15 0z"/>
<path d="M2760 2660 c-17 -6 -9 -7 25 -3 28 3 52 7 54 9 8 7 -54 2 -79 -6z"/>
<path d="M2688 2643 c6 -2 18 -2 25 0 6 3 1 5 -13 5 -14 0 -19 -2 -12 -5z"/>
<path d="M2315 2630 c-13 -6 -15 -9 -5 -9 8 0 22 4 30 9 18 12 2 12 -25 0z"/>
<path d="M2598 2623 c7 -3 16 -2 19 1 4 3 -2 6 -13 5 -11 0 -14 -3 -6 -6z"/>
<path d="M2180 2600 l-25 -8 25 0 c14 0 34 3 45 8 l20 9 -20 -1 c-11 0 -31 -4
-45 -8z"/>
<path d="M2516 2601 c-4 -5 3 -7 14 -4 23 6 26 13 6 13 -8 0 -17 -4 -20 -9z"/>
<path d="M2480 2590 c-9 -6 -10 -10 -3 -10 6 0 15 5 18 10 8 12 4 12 -15 0z"/>
<path d="M2415 2570 c-13 -5 -14 -9 -5 -9 8 0 24 4 35 9 13 5 14 9 5 9 -8 0
-24 -4 -35 -9z"/>
<path d="M4605 3120 c3 -5 8 -10 11 -10 2 0 4 5 4 10 0 6 -5 10 -11 10 -5 0
-7 -4 -4 -10z"/>
<path d="M2378 3942 c-124 -66 -174 -104 -162 -124 6 -10 4 -10 -9 1 -10 8
-20 12 -22 9 -3 -3 1 -11 9 -17 12 -10 26 -5 73 25 32 20 114 66 181 101 122
62 123 63 80 63 -33 0 -67 -13 -150 -58z"/>
<path d="M3558 3653 c12 -2 30 -2 40 0 9 3 -1 5 -23 4 -22 0 -30 -2 -17 -4z"/>
<path d="M3646 3651 c-3 -4 29 -14 70 -23 41 -8 74 -14 74 -12 0 16 -136 49
-144 35z"/>
<path d="M6523 2663 c-26 -5 -32 -19 -43 -98 -10 -63 -4 -109 11 -99 5 3 9 0
9 -5 0 -15 -27 -14 -33 2 -2 6 -12 -43 -22 -110 -15 -102 -20 -119 -31 -108
-8 7 -14 20 -14 27 0 16 -92 290 -110 330 -15 32 -37 42 -74 32 -16 -4 -26
-13 -26 -25 0 -19 53 -191 75 -244 41 -100 129 -381 137 -439 5 -39 14 -76 20
-84 8 -9 8 -16 2 -20 -11 -7 -2 -163 11 -194 8 -19 50 -24 74 -9 17 11 18 35
2 221 -14 166 -12 194 64 685 22 139 17 152 -52 138z m-26 -115 c-3 -8 -6 -5
-6 6 -1 11 2 17 5 13 3 -3 4 -12 1 -19z m-46 -655 c10 -11 10 -14 2 -9 -8 4
-13 1 -13 -8 0 -9 -4 -16 -10 -16 -8 0 -8 23 -1 48 2 6 10 1 22 -15z"/>
<path d="M6000 2614 c-8 -1 -54 -6 -103 -9 -70 -6 -89 -10 -97 -25 -7 -13 -4
-81 10 -217 11 -109 31 -325 45 -481 14 -156 30 -292 35 -303 12 -21 41 -25
70 -9 15 8 17 20 14 92 -3 46 -9 121 -14 168 -15 127 -17 120 35 120 40 0 47
-4 65 -32 11 -18 36 -80 56 -138 20 -58 45 -124 55 -147 17 -42 19 -43 63 -43
44 0 46 1 46 29 0 36 -93 312 -125 368 -20 37 -21 44 -8 54 8 7 24 31 36 53
19 36 22 56 21 156 -1 244 -84 391 -204 364z m-73 -71 c-3 -10 -5 -4 -5 12 0
17 2 24 5 18 2 -7 2 -21 0 -30z m63 28 c0 -6 -4 -13 -10 -16 -5 -3 -10 1 -10
9 0 9 5 16 10 16 6 0 10 -4 10 -9z m-53 -83 c-3 -7 -5 -2 -5 12 0 14 2 19 5
13 2 -7 2 -19 0 -25z m118 -84 c54 -21 71 -192 22 -232 -7 -6 -42 -13 -78 -17
l-66 -7 -6 58 c-3 33 -9 89 -13 126 l-6 66 28 5 c48 7 101 7 119 1z m30 -354
c3 -5 -1 -10 -10 -10 -9 0 -13 5 -10 10 3 6 8 10 10 10 2 0 7 -4 10 -10z"/>
<path d="M5633 2583 c-35 -2 -63 -7 -63 -11 0 -4 -24 -8 -53 -8 -124 -3 -125
-3 -132 -24 -4 -11 -1 -71 6 -133 6 -61 11 -120 11 -129 0 -10 3 -18 8 -18 4
0 6 -9 3 -20 -3 -11 2 -31 11 -45 15 -23 15 -25 1 -25 -13 0 -15 -8 -11 -42 3
-24 10 -92 16 -153 28 -303 43 -431 52 -442 7 -9 30 -11 77 -7 179 15 254 24
260 29 10 11 4 109 -8 113 -6 2 -11 8 -11 13 0 6 5 7 10 4 13 -8 13 7 -1 42
-8 22 -12 24 -19 13 -7 -11 -10 -12 -10 -2 0 14 -35 13 -181 -4 l-46 -5 -10
98 c-5 54 -8 103 -6 109 3 7 44 15 104 19 94 7 101 9 110 32 11 30 -5 152 -23
168 -10 9 -37 9 -111 2 -53 -6 -99 -8 -102 -6 -2 3 -5 52 -7 109 l-3 105 73 6
c44 3 77 11 82 18 5 9 10 10 14 2 10 -16 52 -13 66 4 9 11 11 36 6 86 -7 76
-19 110 -39 107 -7 -1 -40 -3 -74 -5z m77 -143 c0 -5 -5 -10 -11 -10 -6 0 -9
-9 -6 -20 3 -11 1 -20 -4 -20 -10 0 -12 21 -3 44 7 18 24 22 24 6z m-60 -20
c0 -5 -4 -10 -10 -10 -5 0 -10 5 -10 10 0 6 5 10 10 10 6 0 10 -4 10 -10z m7
-712 c-3 -8 -6 -5 -6 6 -1 11 2 17 5 13 3 -3 4 -12 1 -19z m-56 -25 c-9 -16
-10 -14 -11 12 0 21 3 26 11 18 8 -8 8 -16 0 -30z"/>
<path d="M5247 2536 c-17 -17 -21 -48 -47 -409 -10 -143 -20 -261 -23 -263 -2
-3 -15 36 -28 85 -13 49 -27 87 -33 84 -5 -3 -6 -1 -2 5 6 10 -24 152 -41 192
-3 8 -5 21 -4 28 1 6 -2 12 -6 12 -5 0 -9 8 -9 18 -3 53 -50 213 -66 224 -7 4
-25 8 -40 8 -41 0 -51 -28 -34 -92 8 -29 31 -114 51 -188 50 -187 121 -451
159 -598 18 -68 40 -130 48 -139 20 -19 63 -11 77 16 6 10 19 142 31 292 11
151 27 353 36 450 8 96 14 200 12 230 -3 52 -4 54 -34 57 -18 2 -38 -3 -47
-12z m-297 -30 c0 -3 -4 -8 -10 -11 -5 -3 -10 -1 -10 4 0 6 5 11 10 11 6 0 10
-2 10 -4z m35 -6 c3 -5 1 -10 -4 -10 -6 0 -11 5 -11 10 0 6 2 10 4 10 3 0 8
-4 11 -10z"/>
<path d="M4795 2501 c-21 -4 -31 -13 -33 -29 -2 -13 6 -125 18 -250 12 -125
32 -341 44 -480 25 -279 28 -290 85 -277 30 6 31 8 31 62 0 47 -13 201 -50
590 -5 51 -12 98 -17 105 -4 7 -9 51 -10 98 -1 47 -2 97 -2 112 -1 32 -18 78
-28 77 -5 -1 -21 -4 -38 -8z"/>
<path d="M4373 2463 c-9 -3 -13 -26 -13 -65 0 -66 19 -295 26 -317 3 -8 7 -53
9 -101 7 -143 46 -513 56 -532 11 -21 15 -21 189 -7 82 7 140 16 149 24 10 10
12 30 6 88 -10 108 -8 107 -143 94 -69 -6 -116 -7 -121 -1 -5 5 -18 112 -30
239 -11 130 -25 231 -31 233 -5 2 -10 11 -10 20 0 15 2 15 10 2 7 -10 8 4 5
45 -18 201 -25 258 -36 271 -11 14 -42 17 -66 7z m72 -403 c-3 -5 1 -10 9 -10
9 0 16 -4 16 -10 0 -15 -27 -12 -33 4 -3 8 -3 17 0 20 10 10 15 7 8 -4z m168
-545 c-7 -21 -13 -19 -13 6 0 11 4 18 10 14 5 -3 7 -12 3 -20z"/>
<path d="M4062 2436 c-81 -9 -106 -15 -113 -29 -7 -11 0 -125 21 -355 18 -185
38 -402 45 -482 7 -80 16 -153 20 -162 9 -22 26 -22 198 -6 84 7 134 16 143
25 16 16 11 117 -8 167 -10 25 -15 27 -47 23 -20 -4 -75 -9 -122 -13 l-86 -7
-10 104 c-5 57 -8 106 -7 108 2 2 47 8 101 13 118 10 127 17 118 98 -4 30 -11
68 -17 83 l-11 29 -108 -7 -107 -7 -5 53 c-3 30 -7 77 -9 106 l-3 51 50 6 c28
3 83 8 123 12 66 6 73 9 78 31 6 24 -2 132 -13 159 -6 17 -75 17 -231 0z m-82
-76 c0 -5 -4 -10 -10 -10 -5 0 -10 5 -10 10 0 6 5 10 10 10 6 0 10 -4 10 -10z"/>
<path d="M3590 2393 c-30 -2 -66 -6 -79 -9 l-24 -5 7 -117 c4 -64 11 -157 16
-207 5 -49 12 -117 14 -150 28 -327 50 -523 61 -541 12 -19 18 -20 101 -11
151 14 197 49 227 172 25 98 30 183 17 326 -23 265 -81 468 -145 503 -11 6
-22 14 -25 18 -10 13 -61 28 -88 26 -15 -1 -52 -3 -82 -5z m85 -23 c3 -5 1
-10 -4 -10 -6 0 -11 5 -11 10 0 6 2 10 4 10 3 0 8 -4 11 -10z m-19 -21 c3 -6
1 -15 -6 -19 -7 -5 -9 -13 -5 -21 5 -8 4 -11 -1 -6 -11 10 -13 57 -3 57 5 0
11 -5 15 -11z m-31 -58 c3 -5 1 -12 -5 -16 -5 -3 -10 1 -10 9 0 18 6 21 15 7z
m112 -113 c13 -6 32 -30 43 -52 26 -55 51 -227 51 -359 0 -159 -29 -207 -128
-207 -36 0 -43 3 -48 23 -4 20 -55 567 -55 594 0 22 91 23 137 1z m133 -342
c0 -2 -7 -7 -16 -10 -8 -3 -12 -2 -9 4 6 10 25 14 25 6z"/>
<path d="M3124 2339 c-10 -16 -7 -67 21 -364 33 -355 33 -364 -9 -250 -18 50
-66 189 -107 310 -40 121 -78 223 -84 227 -5 4 -7 8 -2 8 17 0 -25 60 -42 60
-46 0 -81 -13 -81 -30 0 -10 3 -20 8 -23 4 -2 1 -2 -5 -1 -15 4 -16 -9 -3
-101 6 -38 13 -103 15 -145 3 -41 14 -169 24 -285 11 -115 23 -244 26 -285 11
-157 24 -189 72 -173 18 6 29 18 32 34 5 35 -21 319 -30 319 -4 0 -5 10 -2 23
3 16 2 18 -5 9 -7 -11 -10 -10 -16 3 -9 23 -8 25 8 19 14 -6 15 3 2 171 -6 90
-6 90 10 50 9 -22 56 -159 106 -305 49 -145 94 -272 99 -282 8 -14 22 -18 65
-18 49 0 56 3 64 24 5 15 5 59 0 113 -5 48 -25 261 -45 473 -19 212 -38 395
-41 408 -5 17 -14 22 -40 22 -18 0 -36 -5 -40 -11z m-248 -156 c-10 -10 -19 5
-10 18 6 11 8 11 12 0 2 -7 1 -15 -2 -18z m44 -343 c0 -5 -2 -10 -4 -10 -3 0
-8 5 -11 10 -3 6 -1 10 4 10 6 0 11 -4 11 -10z m7 -126 c-3 -3 -12 -4 -19 -1
-8 3 -5 6 6 6 11 1 17 -2 13 -5z"/>
<path d="M2497 2305 c-83 -29 -118 -94 -137 -251 -20 -173 15 -500 71 -648 23
-64 68 -128 105 -153 36 -23 122 -23 158 0 15 10 24 23 20 29 -4 7 -3 8 4 4
14 -9 48 44 63 99 30 104 26 396 -6 575 -21 112 -59 225 -93 275 -48 68 -116
95 -185 70z m114 -211 c28 -25 58 -116 74 -223 16 -106 19 -305 6 -364 -17
-73 -94 -101 -144 -52 -14 14 -27 22 -29 18 -3 -4 -4 -3 -2 3 1 7 -6 38 -16
71 -10 32 -21 84 -25 116 -4 31 -10 57 -14 57 -10 0 -4 272 8 316 6 23 23 53
37 67 21 22 30 24 56 16 17 -4 39 -16 49 -25z m104 -624 c3 -5 -1 -10 -10 -10
-9 0 -13 5 -10 10 3 6 8 10 10 10 2 0 7 -4 10 -10z"/>
<path d="M4871 2254 c0 -11 3 -14 6 -6 3 7 2 16 -1 19 -3 4 -6 -2 -5 -13z"/>
<path d="M1986 2234 c-16 -15 -22 -84 -9 -97 3 -4 7 -31 8 -60 1 -28 5 -94 8
-144 l7 -93 -34 0 c-18 0 -60 -3 -93 -6 l-60 -6 -17 183 c-10 101 -22 189 -28
196 -16 20 -66 16 -78 -6 -10 -19 -2 -122 60 -773 10 -114 24 -217 30 -228 14
-26 65 -27 79 -2 7 13 4 83 -8 218 -10 109 -15 202 -12 205 9 10 181 22 181
12 0 -55 42 -409 50 -418 5 -6 25 -9 44 -7 44 5 45 14 29 187 -7 72 -17 186
-23 255 -6 69 -13 139 -15 155 -3 17 -12 112 -20 212 -9 101 -20 194 -25 208
-11 29 -49 34 -74 9z m-79 -540 c-3 -3 -12 -4 -19 -1 -8 3 -5 6 6 6 11 1 17
-2 13 -5z"/>
<path d="M1387 2190 c-48 -9 -86 -37 -112 -81 -17 -29 -20 -52 -20 -154 0
-127 10 -199 25 -190 6 3 7 -1 4 -9 -12 -30 63 -134 117 -161 15 -8 36 -12 45
-8 11 4 15 3 10 -5 -4 -7 10 -20 36 -33 60 -30 87 -57 94 -96 14 -77 -16 -107
-106 -104 -47 1 -58 5 -77 28 -12 15 -20 29 -18 33 2 3 -3 20 -10 38 -11 24
-20 32 -40 32 -16 0 -25 -6 -25 -15 0 -8 -4 -15 -10 -15 -14 0 -4 -102 15
-161 10 -30 22 -49 32 -49 8 0 13 -6 10 -13 -6 -15 19 -47 54 -70 21 -14 39
-16 97 -11 104 10 163 54 166 124 1 17 5 30 10 30 6 0 0 9 -12 21 -12 11 -19
25 -15 32 5 8 8 8 11 -1 10 -32 22 -5 22 51 0 110 -34 231 -79 280 -45 49 -62
61 -147 102 -98 48 -114 68 -114 139 0 48 13 59 74 66 76 8 91 0 114 -62 22
-60 43 -79 70 -62 14 9 17 25 16 85 -1 91 -30 164 -85 214 -41 37 -68 42 -152
25z"/>
<path d="M989 2150 c-66 -12 -97 -44 -124 -130 -24 -76 -35 -511 -14 -537 10
-11 10 -14 2 -9 -20 11 -18 -357 1 -373 16 -13 67 -5 78 13 4 6 8 61 8 123 l0
111 38 6 c20 3 63 8 95 11 40 5 55 10 51 18 -5 9 -4 9 5 1 6 -5 14 -52 17
-103 7 -109 15 -141 35 -154 23 -15 66 0 72 24 3 12 -3 107 -13 213 -11 105
-28 290 -39 410 -14 147 -25 222 -33 228 -10 6 -10 10 1 17 13 9 13 24 -5 113
-5 26 -7 27 -72 26 -37 -1 -83 -4 -103 -8z m171 -104 c0 -3 -4 -8 -10 -11 -5
-3 -10 -1 -10 4 0 6 5 11 10 11 6 0 10 -2 10 -4z m-62 -238 c7 -79 15 -164 18
-189 l6 -45 -82 -10 c-44 -5 -86 -7 -91 -3 -6 4 -8 47 -3 117 7 117 6 119 -37
114 -4 -1 -9 7 -12 18 -5 18 -3 19 24 4 28 -14 29 -14 29 9 0 86 31 127 93
127 l43 0 12 -142z m-151 80 c-3 -8 -6 -5 -6 6 -1 11 2 17 5 13 3 -3 4 -12 1
-19z m253 -238 c0 -5 -4 -10 -10 -10 -5 0 -10 5 -10 10 0 6 5 10 10 10 6 0 10
-4 10 -10z m-57 -125 c-3 -9 -8 -14 -10 -11 -3 3 -2 9 2 15 9 16 15 13 8 -4z
m27 -35 c-8 -5 -19 -10 -25 -10 -5 0 -3 5 5 10 8 5 20 10 25 10 6 0 3 -5 -5
-10z m-39 -63 c-10 -9 -11 -8 -5 6 3 10 9 15 12 12 3 -3 0 -11 -7 -18z m54 14
c3 -5 1 -12 -5 -16 -5 -3 -10 1 -10 9 0 18 6 21 15 7z"/>
<path d="M508 2111 c-30 -4 -57 -16 -74 -31 -27 -26 -64 -87 -45 -76 6 4 11 0
11 -8 0 -9 -7 -16 -16 -16 -11 0 -15 -6 -11 -20 3 -11 1 -18 -3 -15 -15 9 -23
-124 -17 -275 9 -242 54 -452 116 -537 41 -57 88 -76 163 -68 100 12 148 74
164 211 7 56 -3 164 -14 163 -19 -3 -25 2 -12 11 19 12 0 33 -26 28 -25 -4
-42 -43 -49 -110 -9 -80 -25 -97 -103 -102 -35 -2 -61 -1 -58 1 2 3 -6 20 -19
39 -50 74 -86 464 -51 549 17 40 42 55 94 55 51 0 75 -23 92 -85 18 -69 36
-95 65 -95 30 0 36 18 31 105 -4 69 -36 173 -60 198 -7 6 -15 20 -19 29 -8 23
-66 58 -92 57 -11 -1 -41 -5 -67 -8z m-75 -216 c-7 -21 -13 -19 -13 6 0 11 4
18 10 14 5 -3 7 -12 3 -20z m-57 -11 c-4 -9 -9 -15 -11 -12 -3 3 -3 13 1 22 4
9 9 15 11 12 3 -3 3 -13 -1 -22z m178 -659 c-4 -8 -1 -15 5 -15 6 0 11 -4 11
-10 0 -14 -18 -13 -34 2 -9 9 -10 16 -2 25 15 17 27 16 20 -2z"/>
<path d="M6648 1515 c-3 -3 -77 -6 -166 -8 -113 -1 -165 -6 -174 -14 -6 -7
-23 -13 -37 -13 -15 0 -39 -7 -56 -16 -23 -12 -47 -15 -106 -10 -48 3 -94 0
-125 -8 -62 -16 -178 -21 -169 -6 3 5 1 10 -4 10 -6 0 -11 -6 -11 -14 0 -9
-19 -15 -57 -19 -32 -4 -92 -11 -133 -18 -41 -6 -92 -10 -113 -9 -21 0 -63 -6
-93 -15 -30 -9 -58 -14 -62 -11 -4 2 -57 0 -117 -5 -61 -6 -164 -10 -230 -10
-66 0 -163 -6 -215 -14 -290 -43 -340 -49 -395 -50 -92 -2 -102 -4 -87 -14 29
-18 -42 -19 -78 -2 -40 20 -88 19 -175 -3 -32 -9 -77 -16 -100 -16 -22 0 -89
-7 -150 -16 -60 -8 -155 -17 -209 -20 -54 -3 -106 -9 -115 -13 -20 -11 -201
-22 -401 -25 -148 -2 -157 -3 -189 -27 -28 -21 -44 -24 -114 -25 -166 -1 -417
-17 -417 -27 0 -5 -13 -7 -29 -4 -15 3 -33 1 -40 -6 -8 -8 -11 -8 -11 0 0 17
-29 24 -50 13 -13 -7 -21 -7 -25 0 -4 6 -11 8 -17 4 -30 -19 -424 -76 -502
-73 -22 1 -70 -1 -106 -5 -36 -3 -121 -8 -190 -11 -69 -3 -150 -10 -180 -15
-30 -5 -80 -9 -110 -8 -30 1 -86 -5 -125 -14 -46 -11 -74 -13 -82 -7 -15 13
-241 6 -308 -10 -27 -6 -76 -15 -107 -19 -32 -5 -59 -10 -61 -13 -2 -2 0 -18
4 -35 l9 -31 56 11 c40 7 61 6 74 -2 12 -7 68 -9 176 -6 204 7 277 10 289 14
6 2 36 0 69 -5 34 -4 61 -4 65 2 3 5 24 14 46 21 32 9 41 9 47 -2 5 -8 17 -12
28 -9 18 5 20 2 15 -34 -4 -33 2 -53 31 -109 63 -118 176 -284 271 -398 18
-22 33 -45 33 -51 0 -16 145 -157 153 -149 4 4 7 0 7 -9 0 -9 8 -22 19 -29 10
-7 42 -34 70 -60 l53 -48 91 0 91 0 -35 36 c-18 20 -73 69 -121 110 -100 84
-139 126 -228 239 -71 89 -84 101 -88 80 -4 -18 -31 7 -83 75 -18 25 -37 46
-41 48 -5 2 -8 8 -8 13 0 5 -25 51 -55 102 -55 92 -82 135 -69 108 5 -9 3 -12
-4 -7 -7 4 -12 17 -12 30 0 12 -7 31 -15 42 -14 18 -15 18 -12 -6 1 -16 -4
-25 -14 -28 -22 -4 -31 22 -15 44 13 18 44 23 223 40 40 4 71 10 68 14 -2 3
10 7 28 7 81 3 198 12 206 18 19 11 101 22 101 13 0 -5 28 -7 64 -4 l65 4 58
-75 c32 -42 67 -90 79 -107 33 -49 173 -183 233 -224 31 -20 59 -41 62 -46 4
-5 12 -5 19 -1 8 5 11 4 7 -2 -9 -14 81 -83 107 -83 12 0 33 -8 46 -18 14 -9
54 -32 90 -50 36 -18 56 -30 45 -27 -52 16 9 -17 90 -48 165 -63 377 -107 513
-107 30 0 41 -4 36 -11 -5 -8 -31 -10 -88 -5 -45 4 -100 9 -123 11 -23 2 -50
8 -60 13 -26 14 -123 24 -123 14 0 -9 19 -13 180 -43 100 -19 520 -20 600 -2
36 9 81 17 100 19 114 14 355 108 385 152 7 9 52 37 99 61 82 42 222 148 310
236 53 53 230 261 235 277 2 7 10 19 18 26 7 8 11 18 8 23 -4 5 -2 9 4 9 5 0
13 9 16 20 3 11 22 44 42 72 20 29 50 85 68 123 45 96 57 104 152 104 43 0
110 3 148 6 39 3 107 6 153 8 l84 2 -5 -25 c-26 -131 -220 -533 -328 -675 -21
-28 -39 -57 -39 -63 0 -7 -4 -12 -8 -12 -7 0 -126 -140 -127 -149 0 -3 -30
-34 -67 -69 -37 -36 -64 -70 -61 -75 3 -6 2 -7 -4 -4 -5 3 -47 -26 -94 -64
-46 -39 -115 -91 -153 -117 l-68 -47 41 -3 c38 -3 50 3 136 68 178 133 363
324 498 513 49 68 55 82 50 113 -4 23 -2 34 7 34 8 0 10 -9 5 -27 -8 -35 3
-24 43 42 22 36 27 52 19 57 -8 5 -7 8 4 8 25 0 128 226 185 407 21 68 33 93
46 93 9 0 24 3 33 7 15 5 16 1 10 -28 -4 -19 -22 -80 -41 -136 -19 -56 -34
-110 -34 -121 0 -10 -32 -80 -71 -156 -66 -130 -95 -178 -191 -319 -21 -31
-36 -62 -32 -69 4 -6 3 -8 -3 -5 -6 4 -52 -42 -104 -101 -109 -126 -249 -255
-341 -317 -37 -24 -69 -49 -73 -55 -4 -7 47 -10 155 -10 154 0 162 1 200 25
42 26 108 107 92 113 -5 1 -7 15 -4 30 l6 27 6 -24 c5 -23 11 -19 77 56 39 45
80 94 90 110 10 15 28 36 40 46 14 11 20 24 17 35 -4 12 -3 14 3 4 8 -10 13
-10 24 4 20 24 89 138 89 146 0 4 30 56 67 115 90 147 141 262 178 408 54 211
59 225 74 225 9 0 23 5 31 11 11 8 8 9 -13 4 -17 -3 -26 -2 -23 3 3 5 36 10
74 10 37 1 87 5 111 11 24 5 50 7 58 4 8 -3 18 -1 22 4 3 6 44 13 91 17 109 8
201 27 207 43 4 9 27 13 69 13 l64 0 0 34 c0 22 -6 36 -16 40 -19 7 -19 7 -26
1z m-1658 -270 c0 -2 -5 -15 -11 -28 -9 -21 -22 -26 -86 -37 -41 -6 -73 -14
-70 -16 2 -3 33 0 68 5 34 6 64 9 66 8 1 -2 -20 -41 -47 -88 -42 -72 -54 -86
-87 -97 -27 -8 -30 -11 -10 -8 15 2 27 1 27 -1 0 -3 -12 -22 -27 -44 -19 -26
-36 -39 -53 -40 -18 -1 -20 -3 -7 -6 15 -4 14 -9 -13 -43 -21 -27 -26 -40 -18
-43 8 -3 5 -6 -6 -6 -10 -1 -41 -21 -67 -46 -38 -36 -56 -45 -86 -46 l-38 -2
32 -6 32 -6 -57 -42 c-40 -30 -67 -43 -92 -44 -19 0 -44 -4 -55 -9 -14 -6 -6
-7 23 -3 23 3 42 3 42 1 0 -12 -122 -87 -198 -123 -60 -28 -81 -43 -77 -53 5
-13 3 -13 -12 -1 -14 12 -16 12 -11 -1 4 -11 0 -16 -12 -17 -10 -1 -52 -14
-93 -28 -65 -23 -76 -31 -86 -58 -9 -28 -10 -29 -6 -4 6 31 22 32 -170 -5 -60
-12 -158 -23 -218 -25 -78 -4 -105 -8 -100 -16 5 -9 3 -9 -8 -1 -8 6 -69 17
-137 23 -67 7 -147 19 -178 27 -30 8 -64 14 -74 14 -11 0 -20 4 -20 8 0 4 -10
9 -22 10 -13 1 -48 10 -78 21 l-54 19 34 16 c19 9 27 14 18 12 -74 -20 -85
-19 -185 31 -54 26 -100 50 -103 53 -3 3 -25 18 -49 34 -33 21 -40 30 -30 37
10 6 7 9 -12 9 -27 0 -79 34 -79 51 0 5 10 14 22 20 20 8 20 9 -6 4 -21 -5
-39 1 -67 21 -46 32 -48 41 -11 47 19 3 15 4 -11 4 -29 -1 -44 6 -70 31 -36
36 -18 45 20 10 40 -37 25 -14 -18 27 -23 24 -37 32 -33 21 11 -29 -15 -15
-34 19 -17 29 -68 79 -84 81 -4 1 -12 2 -18 3 -5 0 -10 6 -10 12 0 6 -7 17
-15 25 -8 9 -15 19 -15 23 0 5 34 11 76 15 43 3 83 11 90 17 13 10 47 9 157
-7 29 -5 37 -3 37 10 0 21 39 21 68 0 24 -16 86 -12 125 8 25 13 140 20 132 8
-9 -14 7 -12 29 5 13 10 25 11 42 5 13 -5 24 -6 24 -1 0 4 11 6 25 3 14 -2 40
3 59 12 26 12 40 14 58 6 22 -10 22 -10 -4 -7 -17 3 -33 -2 -40 -11 -14 -17
-12 -17 142 8 110 18 191 25 287 25 50 0 86 3 80 7 -7 5 -4 8 9 8 12 0 36 3
54 7 26 5 31 3 25 -7 -6 -10 -4 -11 6 -4 24 15 203 42 216 32 7 -5 13 -4 15 3
3 8 20 9 57 4 38 -5 50 -10 40 -17 -11 -7 -9 -8 6 -6 11 2 20 10 20 18 0 17
75 33 90 19 5 -5 18 -9 28 -9 15 0 17 3 8 14 -9 11 -1 13 46 11 32 -2 64 2 71
7 6 6 25 8 41 5 16 -4 31 -2 33 4 2 5 55 11 119 13 85 3 125 8 149 21 27 14
38 15 52 6 10 -6 23 -9 28 -6 19 12 115 26 204 31 50 2 92 7 95 9 6 6 51 7 51
0z m851 -189 c5 3 9 0 9 -5 0 -6 -9 -11 -20 -11 -14 0 -18 5 -13 17 4 11 8 13
11 5 2 -7 8 -10 13 -6z m-4726 -166 c3 -5 -3 -10 -15 -10 -12 0 -18 5 -15 10
3 6 10 10 15 10 5 0 12 -4 15 -10z m230 -60 c3 -5 -1 -10 -10 -10 -9 0 -13 5
-10 10 3 6 8 10 10 10 2 0 7 -4 10 -10z m4035 -200 c0 -5 -2 -10 -4 -10 -3 0
-8 5 -11 10 -3 6 -1 10 4 10 6 0 11 -4 11 -10z m-1436 -405 c3 -8 1 -15 -3
-15 -5 0 -11 7 -15 15 -3 8 -1 15 3 15 5 0 11 -7 15 -15z"/>
<path d="M4728 1153 c12 -2 30 -2 40 0 9 3 -1 5 -23 4 -22 0 -30 -2 -17 -4z"/>
<path d="M4508 1133 c7 -3 16 -2 19 1 4 3 -2 6 -13 5 -11 0 -14 -3 -6 -6z"/>
<path d="M4668 1063 c7 -3 16 -2 19 1 4 3 -2 6 -13 5 -11 0 -14 -3 -6 -6z"/>
<path d="M4748 1063 c7 -3 16 -2 19 1 4 3 -2 6 -13 5 -11 0 -14 -3 -6 -6z"/>
<path d="M4538 1053 c6 -2 18 -2 25 0 6 3 1 5 -13 5 -14 0 -19 -2 -12 -5z"/>
<path d="M3640 1043 c-19 -3 -39 -8 -44 -13 -11 -11 62 -1 84 11 8 5 11 8 5 7
-5 -1 -26 -3 -45 -5z"/>
<path d="M4473 1043 c9 -2 23 -2 30 0 6 3 -1 5 -18 5 -16 0 -22 -2 -12 -5z"/>
<path d="M2950 1020 c-20 -6 -21 -8 -5 -8 11 0 29 3 40 8 25 11 -1 11 -35 0z"/>
<path d="M3515 1020 c-19 -8 -19 -9 3 -9 12 -1 22 4 22 9 0 6 -1 10 -2 9 -2 0
-12 -4 -23 -9z"/>
<path d="M3950 1020 c-13 -8 -13 -10 2 -10 9 0 20 5 23 10 8 13 -5 13 -25 0z"/>
<path d="M4288 1013 c7 -3 16 -2 19 1 4 3 -2 6 -13 5 -11 0 -14 -3 -6 -6z"/>
<path d="M3318 1003 c12 -2 32 -2 45 0 12 2 2 4 -23 4 -25 0 -35 -2 -22 -4z"/>
<path d="M3398 1003 c7 -3 16 -2 19 1 4 3 -2 6 -13 5 -11 0 -14 -3 -6 -6z"/>
<path d="M3908 1003 c7 -3 16 -2 19 1 4 3 -2 6 -13 5 -11 0 -14 -3 -6 -6z"/>
<path d="M2530 990 c-13 -8 -13 -10 2 -10 9 0 20 5 23 10 8 13 -5 13 -25 0z"/>
<path d="M3165 990 c-27 -7 -28 -8 -5 -8 14 0 34 3 45 8 25 11 2 11 -40 0z"/>
<path d="M3238 993 c7 -3 16 -2 19 1 4 3 -2 6 -13 5 -11 0 -14 -3 -6 -6z"/>
<path d="M4125 980 c-3 -6 1 -7 9 -4 18 7 21 14 7 14 -6 0 -13 -4 -16 -10z"/>
<path d="M4725 980 c-17 -7 -15 -9 12 -9 17 -1 35 4 38 9 7 12 -22 12 -50 0z"/>
<path d="M2430 970 c-11 -8 -7 -9 15 -4 37 8 45 14 19 14 -10 0 -26 -5 -34
-10z"/>
<path d="M3045 970 c-42 -11 -1 -11 50 -1 34 7 35 9 10 9 -16 0 -43 -4 -60 -8z"/>
<path d="M4080 970 c-8 -5 -10 -10 -5 -10 6 0 17 5 25 10 8 5 11 10 5 10 -5 0
-17 -5 -25 -10z"/>
<path d="M2355 960 c-13 -5 -14 -9 -5 -9 8 0 24 4 35 9 13 5 14 9 5 9 -8 0
-24 -4 -35 -9z"/>
<path d="M3733 963 c9 -2 23 -2 30 0 6 3 -1 5 -18 5 -16 0 -22 -2 -12 -5z"/>
<path d="M2249 948 c19 -5 38 -5 42 -1 5 5 -10 9 -34 10 l-42 1 34 -10z"/>
<path d="M2945 950 c-16 -7 -17 -9 -3 -9 9 -1 20 4 23 9 7 11 7 11 -20 0z"/>
<path d="M3663 953 c9 -2 25 -2 35 0 9 3 1 5 -18 5 -19 0 -27 -2 -17 -5z"/>
<path d="M4010 950 c-13 -8 -12 -10 3 -10 9 0 17 5 17 10 0 12 -1 12 -20 0z"/>
<path d="M4368 943 c6 -2 18 -2 25 0 6 3 1 5 -13 5 -14 0 -19 -2 -12 -5z"/>
<path d="M3945 930 c-13 -5 -14 -9 -5 -9 8 0 24 4 35 9 13 5 14 9 5 9 -8 0
-24 -4 -35 -9z"/>
<path d="M3215 910 l-40 -7 37 -2 c20 0 40 4 43 9 3 6 5 9 3 9 -2 -1 -21 -5
-43 -9z"/>
<path d="M2763 900 c-34 -14 -28 -21 7 -9 17 6 30 13 30 15 0 6 -12 4 -37 -6z"/>
<path d="M3858 903 c7 -3 16 -2 19 1 4 3 -2 6 -13 5 -11 0 -14 -3 -6 -6z"/>
<path d="M4178 903 c7 -3 16 -2 19 1 4 3 -2 6 -13 5 -11 0 -14 -3 -6 -6z"/>
<path d="M3010 875 c-98 -21 -235 -60 -180 -51 38 6 251 55 285 65 56 17 0 9
-105 -14z"/>
<path d="M4665 890 c-8 -13 25 -13 45 0 12 8 9 10 -12 10 -15 0 -30 -4 -33
-10z"/>
<path d="M4540 881 c0 -5 9 -7 20 -4 11 3 20 7 20 9 0 2 -9 4 -20 4 -11 0 -20
-4 -20 -9z"/>
<path d="M2675 870 c-16 -7 -17 -9 -3 -9 9 -1 20 4 23 9 7 11 7 11 -20 0z"/>
<path d="M3668 863 c6 -2 18 -2 25 0 6 3 1 5 -13 5 -14 0 -19 -2 -12 -5z"/>
<path d="M2618 853 c6 -2 18 -2 25 0 6 3 1 5 -13 5 -14 0 -19 -2 -12 -5z"/>
<path d="M3593 853 c9 -2 23 -2 30 0 6 3 -1 5 -18 5 -16 0 -22 -2 -12 -5z"/>
<path d="M3960 845 c-19 -7 -28 -14 -20 -14 8 0 29 6 45 14 39 17 21 18 -25 0z"/>
<path d="M3486 842 c-2 -4 11 -6 30 -4 19 2 34 6 34 8 0 8 -59 4 -64 -4z"/>
<path d="M4318 843 c6 -2 18 -2 25 0 6 3 1 5 -13 5 -14 0 -19 -2 -12 -5z"/>
<path d="M4205 825 c-53 -17 -34 -18 35 0 30 7 44 13 30 13 -14 0 -43 -5 -65
-13z"/>
<path d="M3308 823 c7 -3 16 -2 19 1 4 3 -2 6 -13 5 -11 0 -14 -3 -6 -6z"/>
<path d="M3870 820 c-13 -8 -13 -10 2 -10 9 0 20 5 23 10 8 13 -5 13 -25 0z"/>
<path d="M2390 810 c-13 -9 -13 -10 0 -9 8 1 26 5 40 9 l25 8 -25 1 c-14 0
-32 -4 -40 -9z"/>
<path d="M2770 810 c-13 -8 -13 -10 2 -10 9 0 20 5 23 10 8 13 -5 13 -25 0z"/>
<path d="M3130 810 c-20 -6 -21 -8 -5 -8 11 -1 38 3 60 7 l40 9 -35 0 c-19 0
-46 -4 -60 -8z"/>
<path d="M4128 803 c6 -2 18 -2 25 0 6 3 1 5 -13 5 -14 0 -19 -2 -12 -5z"/>
<path d="M3078 793 c7 -3 16 -2 19 1 4 3 -2 6 -13 5 -11 0 -14 -3 -6 -6z"/>
<path d="M4553 793 c15 -2 37 -2 50 0 12 2 0 4 -28 4 -27 0 -38 -2 -22 -4z"/>
<path d="M2963 773 c9 -2 23 -2 30 0 6 3 -1 5 -18 5 -16 0 -22 -2 -12 -5z"/>
<path d="M3638 773 c7 -3 16 -2 19 1 4 3 -2 6 -13 5 -11 0 -14 -3 -6 -6z"/>
<path d="M4005 770 c-13 -6 -15 -9 -5 -9 8 0 22 4 30 9 18 12 2 12 -25 0z"/>
<path d="M3568 763 c6 -2 18 -2 25 0 6 3 1 5 -13 5 -14 0 -19 -2 -12 -5z"/>
<path d="M2522 749 c-48 -10 -54 -22 -7 -14 22 4 42 9 44 11 10 9 -6 10 -37 3z"/>
<path d="M3488 753 c12 -2 32 -2 45 0 12 2 2 4 -23 4 -25 0 -35 -2 -22 -4z"/>
<path d="M3945 750 c-13 -6 -15 -9 -5 -9 8 0 22 4 30 9 18 12 2 12 -25 0z"/>
<path d="M4265 750 c-3 -5 -1 -10 4 -10 6 0 11 5 11 10 0 6 -2 10 -4 10 -3 0
-8 -4 -11 -10z"/>
<path d="M2858 743 c7 -3 16 -2 19 1 4 3 -2 6 -13 5 -11 0 -14 -3 -6 -6z"/>
<path d="M3323 743 c15 -2 39 -2 55 0 15 2 2 4 -28 4 -30 0 -43 -2 -27 -4z"/>
<path d="M3228 733 c12 -2 32 -2 45 0 12 2 2 4 -23 4 -25 0 -35 -2 -22 -4z"/>
<path d="M3860 730 c-21 -7 -21 -8 -5 -9 11 0 27 4 35 9 18 11 5 11 -30 0z"/>
<path d="M3168 723 c6 -2 18 -2 25 0 6 3 1 5 -13 5 -14 0 -19 -2 -12 -5z"/>
<path d="M3065 710 c-28 -7 -28 -8 -5 -9 14 0 32 4 40 9 17 11 8 11 -35 0z"/>
<path d="M2652 690 c-18 -4 -36 -11 -40 -15 -9 -9 58 4 78 16 18 10 7 10 -38
-1z"/>
<path d="M4045 690 c-13 -5 -14 -9 -5 -9 8 0 24 4 35 9 13 5 14 9 5 9 -8 0
-24 -4 -35 -9z"/>
<path d="M4400 690 l-35 -7 38 -2 c20 0 37 4 37 9 0 6 -1 9 -2 9 -2 -1 -19 -5
-38 -9z"/>
<path d="M2890 670 c-13 -9 -13 -10 0 -9 8 1 26 5 40 9 l25 8 -25 1 c-14 0
-32 -4 -40 -9z"/>
<path d="M3588 673 c7 -3 16 -2 19 1 4 3 -2 6 -13 5 -11 0 -14 -3 -6 -6z"/>
<path d="M3975 670 c-16 -7 -17 -9 -3 -9 9 -1 20 4 23 9 7 11 7 11 -20 0z"/>
<path d="M4300 670 c-8 -5 -10 -10 -5 -10 6 0 17 5 25 10 8 5 11 10 5 10 -5 0
-17 -5 -25 -10z"/>
<path d="M3388 663 c18 -2 45 -2 60 0 15 2 0 4 -33 4 -33 0 -45 -2 -27 -4z"/>
<path d="M3288 653 c7 -3 16 -2 19 1 4 3 -2 6 -13 5 -11 0 -14 -3 -6 -6z"/>
<path d="M3196 641 c-4 -5 3 -7 14 -4 23 6 26 13 6 13 -8 0 -17 -4 -20 -9z"/>
<path d="M3855 640 c-28 -7 -28 -8 -5 -9 14 0 32 4 40 9 17 11 8 11 -35 0z"/>
<path d="M3788 623 c6 -2 18 -2 25 0 6 3 1 5 -13 5 -14 0 -19 -2 -12 -5z"/>
<path d="M3020 610 c-13 -9 -13 -10 0 -9 8 1 26 5 40 9 l25 8 -25 1 c-14 0
-32 -4 -40 -9z"/>
<path d="M3690 613 c-19 -3 -39 -8 -43 -12 -4 -4 18 -4 49 0 31 4 58 10 62 13
5 6 -7 6 -68 -1z"/>
<path d="M2660 600 c-11 -7 -5 -8 20 -4 43 8 51 14 19 14 -13 0 -31 -5 -39
-10z"/>
<path d="M2975 605 c-5 -2 -50 -16 -98 -30 -49 -15 -87 -28 -85 -31 2 -2 40 7
84 21 43 14 87 25 96 25 9 0 20 5 23 10 6 10 -1 12 -20 5z"/>
<path d="M2620 590 c-9 -6 -10 -10 -3 -10 6 0 15 5 18 10 8 12 4 12 -15 0z"/>
<path d="M4328 583 c7 -3 16 -2 19 1 4 3 -2 6 -13 5 -11 0 -14 -3 -6 -6z"/>
<path d="M3935 570 c-13 -5 -14 -9 -5 -9 8 0 24 4 35 9 13 5 14 9 5 9 -8 0
-24 -4 -35 -9z"/>
<path d="M3150 550 c-52 -10 -86 -18 -75 -19 23 -1 198 28 204 35 7 7 -30 2
-129 -16z"/>
<path d="M4238 563 c7 -3 16 -2 19 1 4 3 -2 6 -13 5 -11 0 -14 -3 -6 -6z"/>
<path d="M3888 553 c7 -3 16 -2 19 1 4 3 -2 6 -13 5 -11 0 -14 -3 -6 -6z"/>
<path d="M3810 540 c-8 -5 -10 -10 -5 -10 6 0 17 5 25 10 8 5 11 10 5 10 -5 0
-17 -5 -25 -10z"/>
<path d="M2730 530 c-13 -8 -13 -10 2 -10 9 0 20 5 23 10 8 13 -5 13 -25 0z"/>
<path d="M3680 531 l-25 -7 24 -8 c16 -6 28 -3 39 8 18 18 8 20 -38 7z"/>
<path d="M3750 530 c-13 -8 -12 -10 3 -10 9 0 17 5 17 10 0 12 -1 12 -20 0z"/>
<path d="M4100 530 c-13 -8 -12 -10 3 -10 9 0 17 5 17 10 0 12 -1 12 -20 0z"/>
<path d="M3608 503 c7 -3 16 -2 19 1 4 3 -2 6 -13 5 -11 0 -14 -3 -6 -6z"/>
<path d="M2918 493 c7 -3 16 -2 19 1 4 3 -2 6 -13 5 -11 0 -14 -3 -6 -6z"/>
<path d="M3413 493 c9 -2 23 -2 30 0 6 3 -1 5 -18 5 -16 0 -22 -2 -12 -5z"/>
<path d="M3998 493 c7 -3 16 -2 19 1 4 3 -2 6 -13 5 -11 0 -14 -3 -6 -6z"/>
<path d="M3318 483 c12 -2 32 -2 45 0 12 2 2 4 -23 4 -25 0 -35 -2 -22 -4z"/>
<path d="M3958 483 c7 -3 16 -2 19 1 4 3 -2 6 -13 5 -11 0 -14 -3 -6 -6z"/>
<path d="M2823 473 c-13 -2 -23 -8 -23 -13 0 -5 15 -4 33 2 52 18 47 22 -10
11z"/>
<path d="M3895 470 c-3 -5 -1 -10 4 -10 6 0 11 5 11 10 0 6 -2 10 -4 10 -3 0
-8 -4 -11 -10z"/>
<path d="M3135 463 c-11 -3 -24 -9 -29 -14 -5 -4 6 -4 25 1 19 5 45 11 59 13
21 4 21 4 -5 4 -16 1 -39 -1 -50 -4z"/>
<path d="M3805 454 l-50 -14 44 5 c24 3 51 10 60 15 21 12 7 11 -54 -6z"/>
<path d="M3020 434 l-45 -14 40 6 c22 3 47 10 55 15 21 12 3 10 -50 -7z"/>
<path d="M3658 423 c6 -2 18 -2 25 0 6 3 1 5 -13 5 -14 0 -19 -2 -12 -5z"/>
<path d="M3516 412 c-2 -4 13 -6 35 -4 21 2 39 6 39 8 0 7 -69 4 -74 -4z"/>
<path d="M3388 403 c12 -2 30 -2 40 0 9 3 -1 5 -23 4 -22 0 -30 -2 -17 -4z"/>
<path d="M3940 395 c-30 -9 -37 -13 -20 -13 14 0 41 6 60 13 44 17 19 17 -40
0z"/>
<path d="M3228 383 c6 -2 18 -2 25 0 6 3 1 5 -13 5 -14 0 -19 -2 -12 -5z"/>
<path d="M3173 373 c9 -2 23 -2 30 0 6 3 -1 5 -18 5 -16 0 -22 -2 -12 -5z"/>
<path d="M3868 373 c7 -3 16 -2 19 1 4 3 -2 6 -13 5 -11 0 -14 -3 -6 -6z"/>
<path d="M3108 363 c7 -3 16 -2 19 1 4 3 -2 6 -13 5 -11 0 -14 -3 -6 -6z"/>
<path d="M3710 350 c-34 -7 -34 -7 -5 -8 17 0 41 4 55 8 33 11 0 11 -50 0z"/>
<path d="M3575 330 c-13 -6 -15 -9 -5 -9 8 0 22 4 30 9 18 12 2 12 -25 0z"/>
<path d="M3628 333 c6 -2 18 -2 25 0 6 3 1 5 -13 5 -14 0 -19 -2 -12 -5z"/>
<path d="M3390 320 l-35 -7 35 -1 c19 -1 53 3 75 7 l40 9 -40 0 c-22 -1 -56
-4 -75 -8z"/>
<path d="M5415 1403 c-34 -8 -38 -20 -5 -15 16 2 30 8 30 13 0 5 -1 8 -2 8 -2
-1 -12 -3 -23 -6z"/>
<path d="M1430 875 c0 -42 175 -335 200 -335 6 0 9 -4 7 -9 -8 -28 238 -285
387 -404 139 -110 169 -129 203 -125 l28 3 -40 24 c-132 78 -423 346 -524 484
-24 33 -47 55 -53 51 -7 -4 -8 -3 -4 4 4 7 -11 38 -32 69 -58 86 -142 223
-142 233 0 4 -7 13 -15 20 -13 11 -15 8 -15 -15z"/>
<path d="M2280 634 c0 -28 181 -181 199 -169 4 2 16 -8 26 -21 19 -25 64 -54
85 -54 28 0 3 29 -60 68 -38 24 -82 55 -97 70 -57 56 -153 122 -153 106z"/>
<path d="M2664 356 c11 -9 24 -16 30 -16 12 0 7 5 -24 19 -24 11 -24 11 -6 -3z"/>
<path d="M2900 250 c8 -5 22 -9 30 -9 10 0 8 3 -5 9 -27 12 -43 12 -25 0z"/>
<path d="M1755 52 c27 -29 57 -52 67 -52 40 0 15 26 -77 80 l-40 23 50 -51z"/>
</g>
</svg>
