<?xml version="1.0" standalone="no"?>
<!DOCTYPE svg PUBLIC "-//W3C//DTD SVG 20010904//EN"
 "http://www.w3.org/TR/2001/REC-SVG-20010904/DTD/svg10.dtd">
<svg version="1.0" xmlns="http://www.w3.org/2000/svg"
 width="612.000000pt" height="245.000000pt" viewBox="0 0 612.000000 245.000000"
 preserveAspectRatio="xMidYMid meet">

<g transform="translate(0.000000,245.000000) scale(0.100000,-0.100000)"
fill="#000000" stroke="none">
<path d="M1047 1427 c-22 -15 -26 -72 -8 -106 12 -22 31 -29 31 -11 0 6 6 10
14 10 8 0 26 14 40 30 l25 30 15 -27 15 -28 1 32 c0 34 -31 73 -59 73 -9 0
-25 3 -36 6 -11 3 -28 -1 -38 -9z"/>
<path d="M2045 1403 c-16 -18 -25 -38 -24 -58 1 -22 3 -24 6 -8 2 12 11 27 18
33 12 10 17 7 26 -14 7 -15 23 -29 36 -32 20 -5 23 -12 23 -54 0 -44 2 -48 28
-55 44 -10 73 -34 89 -72 11 -28 17 -33 24 -22 17 26 9 49 -31 93 -33 35 -40
50 -40 83 0 45 -17 101 -36 121 -7 6 -31 12 -53 12 -31 0 -46 -6 -66 -27z"/>
<path d="M2025 1265 c4 -16 13 -37 21 -45 12 -12 14 -12 14 8 0 12 -5 22 -10
22 -6 0 -15 10 -21 23 -8 19 -9 18 -4 -8z"/>
<path d="M2530 1230 c0 -11 4 -28 9 -38 5 -9 13 -30 18 -47 4 -16 16 -31 26
-33 12 -2 15 1 11 12 -4 11 0 16 15 16 11 0 26 9 33 20 16 24 28 26 28 3 0
-14 2 -15 13 -4 10 10 4 19 -26 47 -21 20 -45 33 -52 30 -8 -3 -17 -1 -20 4
-4 6 -17 10 -31 10 -17 0 -24 -5 -24 -20z"/>
<path d="M5176 1172 c-2 -4 -2 -27 1 -51 5 -40 7 -42 32 -36 14 4 34 14 44 22
16 15 17 15 18 -3 0 -10 3 -14 5 -7 8 19 -14 50 -47 67 -36 18 -46 19 -53 8z"/>
<path d="M3620 1163 c-33 -12 -50 -37 -50 -74 0 -21 -4 -40 -9 -43 -10 -6 -41
-97 -41 -120 0 -16 37 -46 57 -46 15 0 12 27 -8 87 -10 32 -9 38 7 50 21 15
44 17 44 3 0 -5 11 -10 25 -10 14 0 25 5 25 10 0 6 7 10 16 10 11 0 14 5 10
16 -3 9 -6 32 -6 52 0 20 -4 42 -8 48 -9 15 -43 24 -62 17z m25 -59 c-9 -9
-13 -19 -9 -23 4 -3 9 0 11 7 6 17 23 15 23 -3 0 -9 -9 -15 -25 -15 -14 0 -25
3 -25 6 0 13 22 44 31 44 6 0 3 -7 -6 -16z"/>
<path d="M4537 1133 c-13 -13 -7 -32 22 -64 l30 -32 17 36 c22 47 14 67 -29
67 -19 0 -37 -3 -40 -7z"/>
<path d="M4167 1113 c-4 -3 -7 -13 -7 -21 0 -13 3 -12 19 2 19 17 21 17 43 -9
15 -17 22 -36 20 -56 -3 -25 0 -29 22 -29 22 0 26 4 22 23 -3 12 -8 39 -11 60
-6 37 -6 37 -54 37 -26 0 -51 -3 -54 -7z"/>
<path d="M2571 1033 c-20 -19 -23 -29 -18 -66 3 -24 16 -65 27 -92 12 -28 21
-70 21 -99 0 -28 2 -75 5 -104 7 -66 10 -67 205 -59 l148 6 10 -32 c9 -29 15
-141 12 -239 l-1 -37 -527 1 c-291 1 -512 3 -491 5 21 2 39 11 42 20 5 11 2
14 -11 8 -10 -4 -42 -9 -70 -12 -29 -3 -53 -10 -53 -14 0 -16 -29 -9 -65 15
-20 14 -59 30 -88 36 -51 10 -52 11 -55 48 -2 32 2 39 25 49 16 7 57 42 93 78
36 35 70 64 75 65 6 0 25 -41 44 -90 36 -97 41 -103 65 -94 22 8 21 66 -4 184
-10 52 -18 95 -17 96 1 2 29 -6 62 -17 33 -11 90 -23 128 -26 56 -5 71 -3 87
12 27 25 54 110 44 143 -4 15 -8 29 -9 32 -13 50 13 47 -335 42 -235 -3 -320
-2 -320 7 0 6 -7 11 -15 11 -8 0 -15 -4 -15 -10 0 -6 -73 -10 -200 -10 l-200
0 0 -29 c0 -25 5 -31 30 -36 16 -4 30 -11 30 -16 0 -12 -46 -12 -87 0 -25 7
-44 5 -85 -11 -29 -12 -71 -24 -93 -27 -38 -6 -40 -8 -38 -41 1 -19 9 -40 19
-47 22 -16 126 -16 219 1 39 7 73 10 78 6 8 -7 -17 -75 -32 -84 -5 -3 -7 4 -4
16 4 16 2 20 -5 13 -6 -6 -8 -54 -5 -132 l6 -123 26 0 c37 0 45 8 73 70 123
269 133 346 50 368 -29 8 -2 10 121 11 l157 1 0 -209 c0 -225 0 -225 -52 -210
-16 4 -28 4 -28 -1 0 -5 19 -13 43 -18 l42 -8 -55 -13 c-30 -6 -72 -23 -92
-36 -42 -28 -133 -36 -141 -12 -2 7 -24 12 -58 12 -30 0 -64 4 -76 8 -19 7
-23 5 -23 -12 0 -20 -4 -21 -432 -21 -237 0 -434 -2 -436 -5 -3 -3 1203 -4
2679 -3 1476 2 2476 4 2221 5 -402 3 -466 5 -479 19 -8 8 -28 18 -44 21 -24 4
-29 11 -29 34 0 26 4 29 30 29 17 0 30 5 30 10 0 6 -13 10 -30 10 l-30 0 0 71
c0 62 -2 70 -17 67 -15 -3 -18 -15 -19 -66 0 -34 -4 -65 -7 -68 -3 -4 -17 7
-31 22 -25 28 -26 34 -10 92 6 20 3 22 -39 22 -47 0 -82 22 -52 34 8 3 15 12
15 21 0 12 14 15 75 15 72 0 75 1 90 30 19 37 19 66 -1 74 -9 3 -43 6 -76 6
-66 0 -91 -13 -170 -89 -49 -46 -48 -70 3 -126 l42 -45 -27 -73 c-40 -110 -31
-107 -366 -107 -175 0 -281 4 -285 10 -3 6 -15 10 -25 10 -35 0 -36 10 -46
260 l-6 165 -47 0 c-25 0 -60 3 -78 7 l-32 7 3 -167 c4 -164 9 -215 28 -239 6
-7 5 -19 -2 -32 -10 -20 -20 -21 -147 -21 -112 0 -140 3 -154 16 -10 9 -42 24
-71 34 l-53 17 -3 194 -2 194 137 0 c76 0 144 1 151 3 6 2 12 13 12 23 0 17
-9 19 -110 19 l-110 0 0 40 c0 33 -3 40 -20 40 -17 0 -20 -7 -20 -40 0 -34 -3
-40 -21 -40 -12 0 -23 8 -26 20 -7 26 -23 26 -30 -1 -6 -20 -10 -21 -109 -14
-57 4 -122 4 -144 0 -35 -6 -41 -10 -38 -28 3 -21 7 -22 151 -22 l147 0 0
-145 -1 -145 -48 100 c-71 147 -71 147 -226 160 -38 3 -72 10 -73 16 -2 5 -11
16 -19 25 -14 13 -14 17 1 33 23 25 21 84 -5 107 -11 10 -26 32 -33 49 -35 82
-107 113 -155 68z m-746 -249 c-20 -26 -63 -95 -97 -155 -33 -60 -62 -109 -64
-109 -2 0 -4 70 -4 155 l0 155 100 0 100 0 -35 -46z m336 15 c52 -29 35 -31
-26 -3 -17 8 -51 18 -75 23 l-45 9 46 1 c34 1 60 -7 100 -30z m1525 -362 c9
-29 23 -60 31 -69 11 -13 12 -21 3 -37 -11 -22 -44 -28 -55 -11 -3 6 -15 10
-25 10 -10 0 -21 3 -23 8 -5 8 10 221 20 272 6 32 8 27 19 -43 7 -43 20 -101
30 -130z m-566 -59 c0 -3 -14 -9 -31 -13 -45 -10 -62 10 -53 65 l7 44 39 -44
c21 -25 38 -48 38 -52z m1445 15 c-7 -28 11 -31 20 -3 9 27 41 26 48 -2 8 -28
3 -35 -32 -43 -16 -3 -35 -13 -42 -21 -6 -8 -29 -14 -50 -14 -50 0 -51 16 -2
87 34 50 38 53 51 36 7 -10 10 -28 7 -40z"/>
<path d="M2151 994 l-34 -37 39 6 c21 4 45 7 52 7 17 0 15 14 -6 40 l-17 22
-34 -38z"/>
<path d="M5177 989 c2 -24 9 -58 14 -75 11 -36 44 -70 53 -55 10 16 13 129 4
143 -5 9 -8 6 -8 -10 0 -18 -5 -23 -22 -20 -13 2 -24 11 -26 23 -8 41 -20 36
-15 -6z"/>
<path d="M1970 988 c-14 -17 -27 -34 -30 -38 -3 -5 -16 -10 -30 -13 l-25 -4
27 -2 c20 -1 34 9 58 39 18 23 31 43 28 45 -2 2 -15 -10 -28 -27z"/>
<path d="M1578 943 c6 -2 18 -2 25 0 6 3 1 5 -13 5 -14 0 -19 -2 -12 -5z"/>
<path d="M2020 931 c0 -11 5 -23 10 -26 6 -3 10 -2 10 4 0 5 3 16 6 25 4 11 1
16 -10 16 -9 0 -16 -8 -16 -19z"/>
<path d="M1362 923 c2 -10 10 -18 18 -18 8 0 16 8 18 18 2 12 -3 17 -18 17
-15 0 -20 -5 -18 -17z"/>
<path d="M1650 920 c0 -13 7 -20 20 -20 13 0 20 7 20 20 0 13 -7 20 -20 20
-13 0 -20 -7 -20 -20z"/>
<path d="M3838 931 c-36 -5 -45 -9 -39 -19 7 -11 18 -10 65 3 84 24 77 29 -26
16z"/>
<path d="M3696 908 c3 -4 9 -8 15 -8 5 0 9 4 9 8 0 5 -7 9 -15 9 -8 0 -12 -4
-9 -9z"/>
<path d="M3990 909 c-14 -4 -18 -7 -9 -8 9 -1 30 -8 45 -16 37 -19 50 -19 58
0 3 8 1 15 -5 15 -6 0 -8 4 -5 8 6 10 -50 10 -84 1z"/>
<path d="M5096 868 c-39 -77 -38 -78 53 -78 88 0 108 14 57 40 -17 8 -40 32
-51 52 -11 21 -23 38 -27 38 -3 0 -18 -23 -32 -52z"/>
<path d="M4114 888 c-5 -7 -3 -8 6 -3 7 4 16 2 21 -6 7 -11 9 -10 9 4 0 19
-25 23 -36 5z"/>
<path d="M3006 853 c-6 -14 -5 -15 5 -6 7 7 10 15 7 18 -3 3 -9 -2 -12 -12z"/>
<path d="M5315 830 c3 -5 13 -10 21 -10 8 0 14 -7 14 -16 0 -23 50 -14 68 14
l14 22 -61 0 c-39 0 -60 -4 -56 -10z"/>
<path d="M5537 687 c-37 -40 -43 -36 -22 16 9 21 -4 22 -50 3 -32 -14 -35 -19
-35 -55 0 -24 -5 -41 -11 -41 -8 0 -10 12 -6 35 7 41 -1 44 -31 12 -28 -29
-28 -59 -1 -83 14 -13 19 -27 17 -46 -4 -22 -2 -25 9 -17 9 8 17 8 27 0 17
-14 106 -11 107 4 1 6 -18 16 -41 24 -26 8 -38 17 -32 23 6 6 23 4 47 -6 54
-23 80 -20 93 9 16 34 17 32 -18 39 -44 8 -37 26 10 26 33 0 42 4 52 25 9 19
8 29 -6 50 -26 39 -63 33 -109 -18z"/>
<path d="M2257 624 c-4 -12 -1 -65 7 -119 16 -102 29 -142 20 -59 -3 27 -8 83
-12 124 -6 51 -10 68 -15 54z"/>
<path d="M970 593 c0 -21 -2 -63 -5 -93 -4 -46 -3 -50 5 -25 17 51 24 155 11
155 -6 0 -11 -16 -11 -37z"/>
<path d="M2031 567 c-1 -34 -6 -88 -12 -121 -13 -72 -6 -84 11 -19 14 57 22
191 11 198 -4 2 -9 -24 -10 -58z"/>
<path d="M5156 617 c-11 -8 -17 -23 -14 -38 2 -19 10 -25 36 -27 35 -4 45 -22
12 -22 -24 0 -26 -22 -5 -40 13 -11 23 -10 55 0 22 7 43 11 46 8 3 -3 -9 -10
-25 -16 -17 -6 -31 -16 -31 -21 0 -13 60 -14 80 -1 9 6 17 5 23 -3 5 -7 6 -4
3 9 -4 13 1 29 14 44 23 27 24 29 6 53 -18 23 -35 22 -29 -2 3 -10 0 -22 -6
-25 -7 -5 -11 5 -11 27 0 27 -5 36 -25 45 -38 18 -47 15 -35 -9 21 -38 4 -42
-23 -5 -30 39 -43 43 -71 23z"/>
<path d="M2669 578 c-8 -24 -7 -58 1 -58 5 0 10 14 10 30 0 17 -2 30 -5 30 -3
0 -5 -1 -6 -2z"/>
<path d="M2850 560 c0 -11 4 -20 8 -20 4 0 8 9 9 20 1 11 -2 20 -8 20 -5 0 -9
-9 -9 -20z"/>
<path d="M2663 470 c0 -25 2 -35 4 -22 2 12 2 32 0 45 -2 12 -4 2 -4 -23z"/>
<path d="M2862 475 c0 -16 2 -22 5 -12 2 9 2 23 0 30 -3 6 -5 -1 -5 -18z"/>
<path d="M5371 444 c0 -11 3 -14 6 -6 3 7 2 16 -1 19 -3 4 -6 -2 -5 -13z"/>
<path d="M2871 414 c0 -11 3 -14 6 -6 3 7 2 16 -1 19 -3 4 -6 -2 -5 -13z"/>
<path d="M951 404 c0 -11 3 -14 6 -6 3 7 2 16 -1 19 -3 4 -6 -2 -5 -13z"/>
<path d="M2651 404 c0 -11 3 -14 6 -6 3 7 2 16 -1 19 -3 4 -6 -2 -5 -13z"/>
</g>
</svg>
