<?xml version="1.0" standalone="no"?>
<!DOCTYPE svg PUBLIC "-//W3C//DTD SVG 20010904//EN"
 "http://www.w3.org/TR/2001/REC-SVG-20010904/DTD/svg10.dtd">
<svg version="1.0" xmlns="http://www.w3.org/2000/svg"
 width="890.000000pt" height="512.000000pt" viewBox="0 0 890.000000 512.000000"
 preserveAspectRatio="xMidYMid meet">

<g transform="translate(0.000000,512.000000) scale(0.100000,-0.100000)"
fill="#000000" stroke="none">
<path d="M4390 4850 c-91 -54 -111 -166 -44 -240 61 -67 151 -77 214 -23 85
71 80 188 -12 256 -40 30 -115 33 -158 7z"/>
<path d="M4265 4480 c-649 -69 -1136 -364 -1444 -873 -134 -222 -262 -567
-260 -702 0 -37 3 -33 33 50 126 342 279 587 506 816 149 149 228 216 268 225
15 4 57 29 94 55 37 27 74 49 82 49 7 0 19 7 26 15 7 8 23 15 35 15 12 0 55
15 96 34 80 36 271 86 439 113 198 32 652 15 860 -33 199 -46 430 -147 617
-271 162 -108 343 -299 478 -506 73 -112 208 -391 242 -502 17 -51 33 -85 41
-85 8 0 11 7 8 18 -3 9 -21 84 -41 166 -94 386 -229 632 -489 891 -217 216
-416 338 -710 434 -118 39 -177 53 -262 61 -60 6 -127 15 -149 20 -57 13 -376
20 -470 10z"/>
<path d="M4312 3839 c-114 -15 -251 -53 -334 -93 -179 -85 -330 -250 -332
-364 -1 -37 4 -48 28 -69 l30 -25 295 6 c163 4 312 7 331 7 19 0 206 -3 415
-8 209 -4 382 -5 383 0 2 4 32 7 66 7 87 0 101 16 93 104 -8 86 -31 127 -119
213 -107 105 -249 167 -479 208 -110 20 -285 26 -377 14z m-52 -112 c0 -7 -7
-22 -15 -33 -14 -18 -14 -18 -15 7 0 14 3 29 7 32 11 11 23 8 23 -6z m128 -19
c16 -16 15 -48 -2 -48 -14 0 -26 21 -26 46 0 17 12 18 28 2z m226 -14 c9 -23
8 -24 -13 -24 -14 0 -18 5 -14 20 6 24 19 26 27 4z m176 -11 c0 -20 -3 -24
-11 -16 -7 7 -9 19 -6 27 10 24 17 19 17 -11z m-710 -24 c-11 -20 -22 -24 -33
-12 -9 9 23 44 34 37 5 -3 4 -14 -1 -25z m923 -90 c-23 -8 -27 -4 -19 17 5 14
9 14 22 3 14 -12 14 -14 -3 -20z m-677 -11 c-3 -13 -6 -27 -6 -33 0 -5 -5 -3
-10 5 -15 23 -12 50 6 50 12 0 15 -6 10 -22z m311 -31 c-6 -19 -22 -6 -25 20
-2 27 -2 27 13 8 8 -10 14 -23 12 -28z m273 -14 c0 -20 -3 -24 -11 -16 -7 7
-9 19 -6 27 10 24 17 19 17 -11z m-830 -18 c-13 -16 -40 -20 -40 -7 0 14 12
22 33 22 16 0 17 -3 7 -15z m690 -15 c0 -12 -28 -25 -36 -17 -9 9 6 27 22 27
8 0 14 -5 14 -10z"/>
<path d="M3240 3305 c-21 -25 11 -58 92 -97 78 -39 207 -73 221 -59 17 17
-121 99 -252 151 -43 16 -51 17 -61 5z"/>
<path d="M5590 3227 c-100 -41 -236 -127 -223 -140 27 -28 241 50 300 109 20
20 22 28 13 39 -16 20 -25 19 -90 -8z"/>
<path d="M3697 3232 c-53 -3 -58 -5 -55 -24 5 -33 47 -40 198 -34 74 3 427 6
783 6 579 0 648 2 654 16 3 8 1 20 -5 26 -8 8 -239 11 -764 12 -414 1 -779 0
-811 -2z"/>
<path d="M3689 3137 c-62 -41 -75 -100 -36 -158 12 -19 37 -39 55 -44 20 -7
281 -11 759 -10 699 0 729 1 760 19 75 46 71 159 -7 198 -32 17 -90 18 -766
18 l-731 0 -34 -23z"/>
<path d="M3320 3084 c-157 -19 -215 -32 -242 -54 -19 -15 -21 -22 -12 -37 24
-38 266 -16 407 37 31 12 57 26 57 31 0 11 -63 40 -82 38 -7 -1 -65 -8 -128
-15z"/>
<path d="M5414 3020 c-61 -24 -25 -48 121 -80 130 -28 245 -41 281 -31 31 8
42 34 24 56 -16 20 -129 43 -267 55 -139 11 -131 11 -159 0z"/>
<path d="M3515 2943 c-11 -3 -68 -20 -126 -38 -168 -52 -222 -87 -188 -121 12
-11 22 -11 64 0 71 19 148 51 237 99 61 32 75 43 67 54 -12 13 -19 14 -54 6z"/>
<path d="M3662 2890 c-27 -16 -32 -25 -27 -43 4 -12 16 -30 27 -39 54 -47 241
-73 324 -44 59 20 103 20 174 1 75 -20 134 -20 204 0 46 13 74 16 120 10 77
-10 161 -10 306 0 93 6 129 5 188 -9 59 -13 85 -15 130 -6 81 14 166 59 170
88 7 50 -49 67 -121 37 -43 -18 -145 -20 -202 -4 -60 17 -152 15 -231 -5 -70
-18 -73 -18 -152 3 -101 26 -123 26 -224 0 -78 -20 -84 -21 -140 -5 -74 21
-177 20 -273 0 -73 -17 -76 -17 -137 5 -92 33 -100 34 -136 11z"/>
<path d="M5341 2869 c3 -8 60 -42 128 -76 158 -79 251 -100 251 -57 0 29 -40
52 -162 92 -145 48 -223 63 -217 41z"/>
<path d="M3650 2705 c-20 -24 -13 -84 15 -126 72 -110 231 -135 840 -130 503
4 639 21 722 94 59 52 81 128 46 160 -16 14 -106 15 -814 17 -716 1 -797 -1
-809 -15z"/>
<path d="M3436 2423 c-1 -2 -291 -3 -644 -4 l-641 0 -26 -25 c-21 -19 -24 -27
-15 -44 6 -11 19 -24 29 -30 32 -17 4571 -12 4616 5 39 15 45 25 33 51 -6 13
-21 26 -32 29 -12 2 -727 7 -1591 11 -863 4 -1605 7 -1648 8 -43 1 -79 0 -81
-1z"/>
<path d="M2440 2282 c0 -21 83 -101 122 -118 42 -18 105 -19 1903 -15 2040 4
1907 -1 1960 63 14 16 25 38 25 48 0 17 -11 19 -117 22 -285 8 -3893 7 -3893
0z"/>
<path d="M4440 2103 c-30 -8 -57 -16 -59 -18 -2 -2 28 -46 65 -97 58 -78 75
-111 106 -203 20 -60 34 -112 32 -114 -3 -3 -53 43 -112 101 -262 258 -412
337 -638 338 -88 0 -104 -8 -104 -52 0 -25 7 -32 46 -48 51 -22 227 -140 220
-148 -3 -2 -89 48 -192 111 -157 98 -195 117 -240 123 -72 9 -99 0 -114 -35
-18 -45 -2 -63 117 -126 212 -113 456 -330 849 -752 525 -565 652 -690 859
-848 105 -81 110 -84 119 -62 35 87 84 181 130 246 63 90 83 127 102 190 21
71 19 98 -11 105 -14 4 -45 26 -70 49 l-45 44 0 76 c0 121 -18 223 -65 362
-56 170 -69 237 -63 338 9 126 31 178 144 336 54 76 21 96 -139 85 -95 -6
-112 -10 -137 -31 -38 -32 -104 -152 -151 -276 -45 -117 -78 -170 -122 -197
-66 -41 -65 -42 -189 207 -62 126 -126 242 -141 260 -28 31 -80 54 -122 52
-11 0 -45 -8 -75 -16z"/>
</g>
</svg>
