<?xml version="1.0" standalone="no"?>
<!DOCTYPE svg PUBLIC "-//W3C//DTD SVG 20010904//EN"
 "http://www.w3.org/TR/2001/REC-SVG-20010904/DTD/svg10.dtd">
<svg version="1.0" xmlns="http://www.w3.org/2000/svg"
 width="880.000000pt" height="877.000000pt" viewBox="0 0 880.000000 877.000000"
 preserveAspectRatio="xMidYMid meet">

<g transform="translate(0.000000,877.000000) scale(0.100000,-0.100000)"
fill="#000000" stroke="none">
<path d="M1915 8359 c-309 -37 -646 -194 -902 -418 -619 -542 -787 -1382 -417
-2091 93 -178 159 -264 334 -441 172 -172 272 -247 465 -343 526 -262 1127
-231 1650 85 159 96 382 302 507 469 116 155 229 391 283 591 210 782 -205
1638 -970 2000 -127 60 -290 114 -402 135 -107 19 -435 27 -548 13z m440 -340
c660 -82 1150 -616 1191 -1297 11 -186 -23 -445 -79 -592 -172 -457 -534 -766
-1017 -872 -149 -32 -400 -36 -558 -9 -208 35 -374 100 -545 213 -123 82 -303
263 -384 386 -260 395 -297 958 -92 1401 104 224 315 456 536 589 144 87 398
174 558 192 79 9 271 4 390 -11z"/>
<path d="M1313 7539 c-58 -29 -85 -75 -90 -157 l-5 -67 394 -391 c216 -215
415 -405 441 -423 70 -48 111 -50 170 -11 67 45 488 465 526 524 74 119 7 256
-125 256 -67 0 -93 -19 -306 -228 l-169 -166 -92 90 c-50 49 -180 175 -287
280 -232 228 -303 292 -336 304 -39 15 -75 12 -121 -11z"/>
<path d="M4048 5728 c-38 -33 -68 -90 -68 -128 0 -43 42 -120 74 -137 48 -25
254 -32 979 -32 l657 -1 -2 -1507 -3 -1508 -2197 -3 -2198 -2 0 1139 0 1138
-44 41 c-24 22 -61 45 -83 51 -66 18 -144 -11 -180 -66 -24 -37 -31 -343 -32
-1569 l-1 -951 37 -38 c51 -52 92 -75 136 -75 l37 0 0 -276 0 -277 45 -52 45
-53 209 -7 210 -7 17 -52 c60 -183 191 -347 371 -466 258 -171 572 -171 843
-2 162 101 320 301 371 470 l12 43 1386 -3 c762 -2 1393 -7 1402 -11 9 -4 31
-42 49 -84 113 -258 318 -441 575 -515 102 -29 285 -32 385 -5 128 34 296 135
405 244 50 50 144 201 180 288 12 31 28 62 34 68 8 8 99 14 296 17 265 5 286
7 312 26 39 29 63 65 73 110 11 47 12 1213 1 1405 -7 122 -11 142 -39 202 -56
120 -128 183 -525 457 -115 79 -219 157 -232 174 -13 17 -113 182 -222 366
-237 399 -334 554 -376 598 l-31 32 -457 0 -456 0 -6 173 c-3 94 -6 271 -7
392 0 248 -5 294 -31 347 -40 79 37 73 -994 76 l-920 2 -37 -32z m2423 -1298
l327 0 271 -458 271 -458 318 -217 c174 -119 330 -228 347 -241 l29 -24 8
-183 c5 -101 7 -240 6 -309 l-3 -125 -1002 -3 -1003 -2 -1 82 c-5 267 -6 1843
-1 1892 l5 58 51 -6 c28 -3 198 -6 377 -6z m-4672 -2387 c-49 -81 -91 -165
-113 -225 l-22 -63 -80 -3 -81 -3 -6 107 c-4 59 -7 133 -7 166 l0 58 166 0
166 0 -23 -37z m4415 26 c3 -3 -18 -53 -48 -110 -29 -57 -62 -129 -71 -159
-10 -30 -21 -58 -24 -63 -4 -4 -631 -4 -1394 0 l-1386 6 -22 66 c-26 78 -72
173 -105 218 -13 17 -24 34 -24 37 0 3 87 7 193 9 334 5 2875 2 2881 -4z
m1836 -164 l0 -175 -48 0 c-27 0 -104 3 -171 7 -120 6 -123 7 -132 32 -46 124
-65 168 -101 226 -32 53 -37 69 -27 76 8 5 119 9 247 9 l232 0 0 -175z m-5454
154 c118 -22 220 -91 290 -196 94 -142 101 -386 14 -538 -80 -139 -205 -211
-385 -222 -164 -10 -291 33 -391 133 -112 113 -155 274 -123 463 17 95 50 164
114 230 113 119 287 166 481 130z m4404 1 c137 -22 253 -106 327 -237 l38 -68
0 -165 0 -165 -32 -65 c-84 -170 -239 -260 -445 -260 -179 0 -324 76 -415 217
-45 71 -63 147 -63 268 0 165 36 261 132 358 51 51 147 102 219 116 62 12 163
13 239 1z"/>
</g>
</svg>
