<?xml version="1.0" standalone="no"?>
<!DOCTYPE svg PUBLIC "-//W3C//DTD SVG 20010904//EN"
 "http://www.w3.org/TR/2001/REC-SVG-20010904/DTD/svg10.dtd">
<svg version="1.0" xmlns="http://www.w3.org/2000/svg"
 width="642.000000pt" height="980.000000pt" viewBox="0 0 642.000000 980.000000"
 preserveAspectRatio="xMidYMid meet">

<g transform="translate(0.000000,980.000000) scale(0.100000,-0.100000)"
fill="#000000" stroke="none">
<path d="M2990 9793 c-659 -49 -1265 -285 -1781 -694 -133 -105 -401 -374
-508 -509 -384 -485 -608 -1032 -682 -1665 -16 -133 -16 -479 0 -585 163
-1119 1077 -3108 2756 -5999 50 -85 113 -180 142 -211 157 -171 429 -171 586
0 53 57 84 109 413 682 1198 2083 2037 3841 2349 4918 120 417 162 688 151
970 -28 702 -264 1343 -697 1890 -107 135 -374 403 -509 510 -577 459 -1293
706 -2020 698 -85 -1 -175 -3 -200 -5z m623 -752 c264 -47 469 -114 696 -227
495 -246 884 -636 1126 -1129 171 -348 242 -639 252 -1030 6 -232 -8 -385 -52
-590 -199 -922 -919 -1660 -1837 -1884 -218 -53 -329 -66 -588 -66 -260 0
-369 13 -590 66 -738 180 -1376 715 -1680 1408 -133 304 -197 589 -207 927 -6
205 5 355 38 534 187 996 980 1790 1976 1980 179 34 247 39 503 36 195 -3 269
-8 363 -25z"/>
<path d="M3080 7815 c-8 -2 -49 -9 -90 -15 -423 -69 -799 -396 -934 -815 -199
-616 136 -1291 746 -1504 141 -49 244 -65 408 -64 337 1 609 117 850 363 202
205 313 444 339 730 34 366 -99 717 -370 976 -184 175 -402 282 -649 320 -83
12 -256 17 -300 9z m315 -117 c210 -35 420 -145 580 -303 275 -273 387 -675
291 -1050 -29 -112 -111 -289 -176 -375 -153 -206 -382 -361 -624 -421 -105
-27 -327 -36 -434 -19 -650 104 -1067 756 -887 1385 55 193 152 352 301 494
257 246 596 349 949 289z"/>
<path d="M3073 7630 c-223 -31 -409 -121 -570 -274 -148 -141 -241 -296 -295
-494 -32 -114 -31 -361 0 -486 48 -191 144 -358 284 -491 96 -93 167 -142 281
-195 301 -141 657 -125 939 41 179 105 313 250 403 434 83 169 100 245 100
450 0 205 -17 281 -100 450 -169 346 -493 555 -880 570 -55 2 -128 0 -162 -5z"/>
<path d="M4620 6615 l0 -1115 135 0 135 0 0 590 0 589 118 3 117 3 13 75 c9
50 12 125 9 225 -4 125 -10 169 -36 265 -43 164 -105 307 -183 425 l-33 50
-138 3 -137 3 0 -1116z"/>
<path d="M1530 7538 c0 -90 -3 -220 -7 -290 l-6 -128 -52 0 -53 0 -5 43 c-4
23 -13 141 -22 262 -9 121 -18 230 -21 243 -4 19 -11 22 -49 22 l-45 0 0 -322
c0 -204 4 -338 11 -363 13 -48 81 -117 133 -136 l36 -13 0 -678 0 -678 135 0
135 0 0 675 0 675 38 24 c43 27 93 81 119 129 16 28 18 69 21 360 l3 327 -50
0 c-34 0 -51 -4 -51 -12 0 -7 -7 -130 -15 -273 -8 -143 -15 -266 -15 -272 0
-9 -20 -13 -64 -13 l-63 0 -7 77 c-3 42 -6 172 -6 290 l0 213 -50 0 -50 0 0
-162z"/>
</g>
</svg>
